<?xml version="1.0" encoding="UTF-8" standalone="no"?>
<!-- Created with Inkscape (http://www.inkscape.org/) -->
<svg
   xmlns:dc="http://purl.org/dc/elements/1.1/"
   xmlns:cc="http://creativecommons.org/ns#"
   xmlns:rdf="http://www.w3.org/1999/02/22-rdf-syntax-ns#"
   xmlns:svg="http://www.w3.org/2000/svg"
   xmlns="http://www.w3.org/2000/svg"
   xmlns:sodipodi="http://sodipodi.sourceforge.net/DTD/sodipodi-0.dtd"
   xmlns:inkscape="http://www.inkscape.org/namespaces/inkscape"
   width="905.69684"
   height="444.26828"
   id="svg2"
   sodipodi:version="0.32"
   inkscape:version="0.45.1+0.46pre1+devel"
   version="1.0"
   sodipodi:docname="Glowing symbol.svg"
   inkscape:output_extension="org.inkscape.output.svg.inkscape"
   inkscape:export-filename="C:\Documents and Settings\Dan\Skrivbord\Glowing symbol.png"
   inkscape:export-xdpi="310"
   inkscape:export-ydpi="310">
  <defs
     id="defs4">
    <inkscape:perspective
       sodipodi:type="inkscape:persp3d"
       inkscape:vp_x="-50 : 600 : 1"
       inkscape:vp_y="0 : 1000 : 0"
       inkscape:vp_z="700 : 600 : 1"
       inkscape:persp3d-origin="300 : 400 : 1"
       id="perspective10" />
    <filter
       inkscape:collect="always"
       id="filter3207"
       x="-0.065790027"
       width="1.1315801"
       y="-0.53093714"
       height="2.0618744">
      <feGaussianBlur
         inkscape:collect="always"
         stdDeviation="9.0069683"
         id="feGaussianBlur3209" />
    </filter>
    <filter
       inkscape:collect="always"
       id="filter3309"
       x="-0.15948591"
       width="1.3189718"
       y="-0.2357004"
       height="1.4714009">
      <feGaussianBlur
         inkscape:collect="always"
         stdDeviation="11.210229"
         id="feGaussianBlur3311" />
    </filter>
    <filter
       inkscape:collect="always"
       id="filter3475"
       x="-0.41463414"
       width="1.8292683"
       y="-0.41463414"
       height="1.8292683">
      <feGaussianBlur
         inkscape:collect="always"
         stdDeviation="21.291223"
         id="feGaussianBlur3477" />
    </filter>
    <filter
       inkscape:collect="always"
       id="filter3571"
       x="-0.050480999"
       width="1.100962"
       y="-0.13290979"
       height="1.2658195">
      <feGaussianBlur
         inkscape:collect="always"
         stdDeviation="16.655282"
         id="feGaussianBlur3573" />
    </filter>
  </defs>
  <sodipodi:namedview
     id="base"
     pagecolor="#ffffff"
     bordercolor="#666666"
     borderopacity="1.0"
     gridtolerance="10000"
     guidetolerance="10"
     objecttolerance="10"
     inkscape:pageopacity="0.0"
     inkscape:pageshadow="2"
     inkscape:zoom="0.7"
     inkscape:cx="449.85913"
     inkscape:cy="204.44354"
     inkscape:document-units="px"
     inkscape:current-layer="layer1"
     showgrid="false"
     inkscape:window-width="1152"
     inkscape:window-height="838"
     inkscape:window-x="-4"
     inkscape:window-y="-4" />
  <metadata
     id="metadata7">
    <rdf:RDF>
      <cc:Work
         rdf:about="">
        <dc:format>image/svg+xml</dc:format>
        <dc:type
           rdf:resource="http://purl.org/dc/dcmitype/StillImage" />
      </cc:Work>
    </rdf:RDF>
  </metadata>
  <g
     inkscape:label="Layer 1"
     inkscape:groupmode="layer"
     id="layer1"
     transform="translate(82.848412,-355.22803)">
    <rect
       style="fill:#020202;fill-opacity:1;fill-rule:evenodd;stroke:none;stroke-width:1.01746202px;stroke-linecap:butt;stroke-linejoin:miter;stroke-opacity:1"
       id="rect3575"
       width="905.69684"
       height="444.26828"
       x="-82.848412"
       y="355.22803"
       rx="262.37775"
       ry="0.18854988" />
    <g
       id="g3521"
       transform="matrix(1.0577321,0,0,1.2232511,-24.910245,-115.68183)"
       style="fill:#00ddd4;fill-opacity:1;stroke:none;filter:url(#filter3571)">
      <path
         sodipodi:nodetypes="ccsccsccc"
         id="path3523"
         d="M 365.71429,544.33036 L 179.90179,575.64286 C 179.90179,575.64285 280.91828,578.65158 304.15179,611.98661 C 327.3853,645.32165 361.67368,731.19362 365.71429,726.14286 C 366.58615,726.58087 366.90476,726.00284 367.68304,726.26786 C 371.72365,731.31862 406.04329,645.44664 429.27679,612.11161 C 452.5103,578.77658 553.52679,575.7366 553.52679,575.73661 L 367.68304,544.42411 C 366.63941,598.27524 366.91759,598.05348 365.71429,544.33036 z"
         style="fill:#00ddd4;fill-opacity:1;fill-rule:evenodd;stroke:none;stroke-width:1px;stroke-linecap:butt;stroke-linejoin:miter;stroke-opacity:1" />
      <g
         transform="translate(75.714286,-2.8571429)"
         id="g3525"
         style="fill:#00ddd4;fill-opacity:1;stroke:none">
        <path
           style="fill:#00ddd4;fill-opacity:1;fill-rule:evenodd;stroke:none;stroke-width:1px;stroke-linecap:butt;stroke-linejoin:miter;stroke-opacity:1"
           d="M 334.3605,507.88996 L 647.50778,485.6666 C 647.50778,485.6666 683.87328,484.65645 686.90373,511.93057 C 689.93419,539.20469 653.5687,542.23514 653.5687,542.23514 L 339.41126,535.16408 L 334.3605,507.88996 z"
           id="path3527" />
        <path
           style="fill:#00ddd4;fill-opacity:1;fill-rule:evenodd;stroke:none;stroke-width:1px;stroke-linecap:butt;stroke-linejoin:miter;stroke-opacity:1"
           d="M 337.80633,534.15633 L 653.98407,543.2477 C 653.98407,543.2477 690.34957,542.23755 693.38002,569.51167 C 696.41048,596.78579 660.04499,599.81624 660.04499,599.81624 L 335.78602,562.4406 L 337.80633,534.15633 z"
           id="path3529"
           sodipodi:nodetypes="ccsccc" />
        <path
           style="fill:#00ddd4;fill-opacity:1;fill-rule:evenodd;stroke:none;stroke-width:1px;stroke-linecap:butt;stroke-linejoin:miter;stroke-opacity:1"
           d="M 322.14897,483.14122 L 641.35717,428.59298 C 641.35717,428.59298 677.72267,427.58283 680.75312,454.85695 C 683.78358,482.13107 647.41809,485.16152 647.41809,485.16152 L 328.20988,509.40519 L 322.14897,483.14122 z"
           id="path3531"
           sodipodi:nodetypes="ccsccc" />
        <path
           style="fill:#00ddd4;fill-opacity:1;fill-rule:evenodd;stroke:none;stroke-width:1px;stroke-linecap:butt;stroke-linejoin:miter;stroke-opacity:1;filter:url(#filter3207)"
           d="M 347.14286,543.07647 L 660,561.6479 L 674.28571,573.79075 L 656.42857,583.79075 L 345.71429,552.36218 L 347.14286,543.07647 z"
           id="path3533"
           sodipodi:nodetypes="cccccc" />
        <path
           style="fill:#00ddd4;fill-opacity:1;fill-rule:evenodd;stroke:none;stroke-width:1px;stroke-linecap:butt;stroke-linejoin:miter;stroke-opacity:1;filter:url(#filter3207)"
           d="M 345,518.43361 L 658.57142,502.00504 L 672.85713,514.14789 L 654.99999,524.14789 L 343.57143,527.71932 L 345,518.43361 z"
           id="path3535"
           sodipodi:nodetypes="cccccc" />
        <path
           style="fill:#00ddd4;fill-opacity:1;fill-rule:evenodd;stroke:none;stroke-width:1px;stroke-linecap:butt;stroke-linejoin:miter;stroke-opacity:1;filter:url(#filter3207)"
           d="M 331.07143,490.93362 L 648.21428,446.64791 L 666.07142,453.07647 L 653.21428,468.79076 L 329.64286,500.21933 L 331.07143,490.93362 z"
           id="path3537"
           sodipodi:nodetypes="cccccc" />
      </g>
      <path
         id="path3539"
         d="M 367.64838,686.86028 L 412.09509,595.94655 L 450.48088,572.71304 L 281.78541,572.71304 L 323.20166,597.96685 L 367.64838,686.86028 z"
         style="fill:#00ddd4;fill-opacity:1;fill-rule:evenodd;stroke:none;stroke-width:1px;stroke-linecap:butt;stroke-linejoin:miter;stroke-opacity:1;filter:url(#filter3309)" />
      <g
         transform="matrix(-1,0,0,1,670.99705,1.0171199)"
         id="g3541"
         style="fill:#00ddd4;fill-opacity:1;stroke:none">
        <path
           style="fill:#00ddd4;fill-opacity:1;fill-rule:evenodd;stroke:none;stroke-width:1px;stroke-linecap:butt;stroke-linejoin:miter;stroke-opacity:1"
           d="M 334.3605,507.88996 L 647.50778,485.6666 C 647.50778,485.6666 683.87328,484.65645 686.90373,511.93057 C 689.93419,539.20469 653.5687,542.23514 653.5687,542.23514 L 339.41126,535.16408 L 334.3605,507.88996 z"
           id="path3543" />
        <path
           style="fill:#00ddd4;fill-opacity:1;fill-rule:evenodd;stroke:none;stroke-width:1px;stroke-linecap:butt;stroke-linejoin:miter;stroke-opacity:1"
           d="M 337.80633,534.15633 L 653.98407,543.2477 C 653.98407,543.2477 690.34957,542.23755 693.38002,569.51167 C 696.41048,596.78579 660.04499,599.81624 660.04499,599.81624 L 335.78602,562.4406 L 337.80633,534.15633 z"
           id="path3545"
           sodipodi:nodetypes="ccsccc" />
        <path
           style="fill:#00ddd4;fill-opacity:1;fill-rule:evenodd;stroke:none;stroke-width:1px;stroke-linecap:butt;stroke-linejoin:miter;stroke-opacity:1"
           d="M 322.14897,483.14122 L 641.35717,428.59298 C 641.35717,428.59298 677.72267,427.58283 680.75312,454.85695 C 683.78358,482.13107 647.41809,485.16152 647.41809,485.16152 L 328.20988,509.40519 L 322.14897,483.14122 z"
           id="path3547"
           sodipodi:nodetypes="ccsccc" />
        <path
           style="fill:#00ddd4;fill-opacity:1;fill-rule:evenodd;stroke:none;stroke-width:1px;stroke-linecap:butt;stroke-linejoin:miter;stroke-opacity:1;filter:url(#filter3207)"
           d="M 347.14286,543.07647 L 660,561.6479 L 674.28571,573.79075 L 656.42857,583.79075 L 345.71429,552.36218 L 347.14286,543.07647 z"
           id="path3549"
           sodipodi:nodetypes="cccccc" />
        <path
           style="fill:#00ddd4;fill-opacity:1;fill-rule:evenodd;stroke:none;stroke-width:1px;stroke-linecap:butt;stroke-linejoin:miter;stroke-opacity:1;filter:url(#filter3207)"
           d="M 345,518.43361 L 658.57142,502.00504 L 672.85713,514.14789 L 654.99999,524.14789 L 343.57143,527.71932 L 345,518.43361 z"
           id="path3551"
           sodipodi:nodetypes="cccccc" />
        <path
           style="fill:#00ddd4;fill-opacity:1;fill-rule:evenodd;stroke:none;stroke-width:1px;stroke-linecap:butt;stroke-linejoin:miter;stroke-opacity:1;filter:url(#filter3207)"
           d="M 331.07143,490.93362 L 648.21428,446.64791 L 666.07142,453.07647 L 653.21428,468.79076 L 329.64286,500.21933 L 331.07143,490.93362 z"
           id="path3553"
           sodipodi:nodetypes="cccccc" />
      </g>
      <path
         transform="translate(76.724438,18.35606)"
         d="M 354.56355,505.86966 A 61.619305,61.619305 0 1 1 231.32494,505.86966 A 61.619305,61.619305 0 1 1 354.56355,505.86966 z"
         sodipodi:ry="61.619305"
         sodipodi:rx="61.619305"
         sodipodi:cy="505.86966"
         sodipodi:cx="292.94424"
         id="path3555"
         style="opacity:0.9958678;fill:#00ddd4;fill-opacity:1;fill-rule:nonzero;stroke:none;stroke-width:0.80000001;stroke-linecap:butt;stroke-linejoin:round;stroke-miterlimit:4;stroke-dasharray:none;stroke-opacity:1"
         sodipodi:type="arc" />
      <path
         transform="matrix(0.5819672,0,0,0.5819672,199.68981,230.33124)"
         d="M 354.56355,505.86966 A 61.619305,61.619305 0 1 1 231.32494,505.86966 A 61.619305,61.619305 0 1 1 354.56355,505.86966 z"
         sodipodi:ry="61.619305"
         sodipodi:rx="61.619305"
         sodipodi:cy="505.86966"
         sodipodi:cx="292.94424"
         id="path3557"
         style="opacity:0.9958678;fill:#00ddd4;fill-opacity:1;fill-rule:nonzero;stroke:none;stroke-width:0.80000001;stroke-linecap:butt;stroke-linejoin:round;stroke-miterlimit:4;stroke-dasharray:none;stroke-opacity:1;filter:url(#filter3475)"
         sodipodi:type="arc" />
    </g>
    <g
       id="g3501">
      <path
         sodipodi:nodetypes="ccsccsccc"
         id="path3172"
         d="M 365.71429,544.33036 L 179.90179,575.64286 C 179.90179,575.64285 280.91828,578.65158 304.15179,611.98661 C 327.3853,645.32165 361.67368,731.19362 365.71429,726.14286 C 366.58615,726.58087 366.90476,726.00284 367.68304,726.26786 C 371.72365,731.31862 406.04329,645.44664 429.27679,612.11161 C 452.5103,578.77658 553.52679,575.7366 553.52679,575.73661 L 367.68304,544.42411 C 366.63941,598.27524 366.91759,598.05348 365.71429,544.33036 z"
         style="fill:#12eeff;fill-opacity:1;fill-rule:evenodd;stroke:none;stroke-width:1px;stroke-linecap:butt;stroke-linejoin:miter;stroke-opacity:1" />
      <g
         transform="translate(75.714286,-2.8571429)"
         id="g3479">
        <path
           style="fill:#0840ff;fill-opacity:1;fill-rule:evenodd;stroke:#989898;stroke-width:1px;stroke-linecap:butt;stroke-linejoin:miter;stroke-opacity:1"
           d="M 334.3605,507.88996 L 647.50778,485.6666 C 647.50778,485.6666 683.87328,484.65645 686.90373,511.93057 C 689.93419,539.20469 653.5687,542.23514 653.5687,542.23514 L 339.41126,535.16408 L 334.3605,507.88996 z"
           id="path3164" />
        <path
           style="fill:#0840ff;fill-opacity:1;fill-rule:evenodd;stroke:#989898;stroke-width:1px;stroke-linecap:butt;stroke-linejoin:miter;stroke-opacity:1"
           d="M 337.80633,534.15633 L 653.98407,543.2477 C 653.98407,543.2477 690.34957,542.23755 693.38002,569.51167 C 696.41048,596.78579 660.04499,599.81624 660.04499,599.81624 L 335.78602,562.4406 L 337.80633,534.15633 z"
           id="path3166"
           sodipodi:nodetypes="ccsccc" />
        <path
           style="fill:#0840ff;fill-opacity:1;fill-rule:evenodd;stroke:#989898;stroke-width:1px;stroke-linecap:butt;stroke-linejoin:miter;stroke-opacity:1"
           d="M 322.14897,483.14122 L 641.35717,428.59298 C 641.35717,428.59298 677.72267,427.58283 680.75312,454.85695 C 683.78358,482.13107 647.41809,485.16152 647.41809,485.16152 L 328.20988,509.40519 L 322.14897,483.14122 z"
           id="path3170"
           sodipodi:nodetypes="ccsccc" />
        <path
           style="fill:#cee7ff;fill-opacity:1;fill-rule:evenodd;stroke:none;stroke-width:1px;stroke-linecap:butt;stroke-linejoin:miter;stroke-opacity:1;filter:url(#filter3207)"
           d="M 347.14286,543.07647 L 660,561.6479 L 674.28571,573.79075 L 656.42857,583.79075 L 345.71429,552.36218 L 347.14286,543.07647 z"
           id="path3177"
           sodipodi:nodetypes="cccccc" />
        <path
           style="fill:#cee7ff;fill-opacity:1;fill-rule:evenodd;stroke:none;stroke-width:1px;stroke-linecap:butt;stroke-linejoin:miter;stroke-opacity:1;filter:url(#filter3207)"
           d="M 345,518.43361 L 658.57142,502.00504 L 672.85713,514.14789 L 654.99999,524.14789 L 343.57143,527.71932 L 345,518.43361 z"
           id="path3211"
           sodipodi:nodetypes="cccccc" />
        <path
           style="fill:#cee7ff;fill-opacity:1;fill-rule:evenodd;stroke:none;stroke-width:1px;stroke-linecap:butt;stroke-linejoin:miter;stroke-opacity:1;filter:url(#filter3207)"
           d="M 331.07143,490.93362 L 648.21428,446.64791 L 666.07142,453.07647 L 653.21428,468.79076 L 329.64286,500.21933 L 331.07143,490.93362 z"
           id="path3213"
           sodipodi:nodetypes="cccccc" />
      </g>
      <path
         id="path3215"
         d="M 367.64838,686.86028 L 412.09509,595.94655 L 450.48088,572.71304 L 281.78541,572.71304 L 323.20166,597.96685 L 367.64838,686.86028 z"
         style="fill:#d3fcff;fill-opacity:1;fill-rule:evenodd;stroke:none;stroke-width:1px;stroke-linecap:butt;stroke-linejoin:miter;stroke-opacity:1;filter:url(#filter3309)" />
      <g
         transform="matrix(-1,0,0,1,670.99705,1.0171199)"
         id="g3487">
        <path
           style="fill:#0840ff;fill-opacity:1;fill-rule:evenodd;stroke:#989898;stroke-width:1px;stroke-linecap:butt;stroke-linejoin:miter;stroke-opacity:1"
           d="M 334.3605,507.88996 L 647.50778,485.6666 C 647.50778,485.6666 683.87328,484.65645 686.90373,511.93057 C 689.93419,539.20469 653.5687,542.23514 653.5687,542.23514 L 339.41126,535.16408 L 334.3605,507.88996 z"
           id="path3489" />
        <path
           style="fill:#0840ff;fill-opacity:1;fill-rule:evenodd;stroke:#989898;stroke-width:1px;stroke-linecap:butt;stroke-linejoin:miter;stroke-opacity:1"
           d="M 337.80633,534.15633 L 653.98407,543.2477 C 653.98407,543.2477 690.34957,542.23755 693.38002,569.51167 C 696.41048,596.78579 660.04499,599.81624 660.04499,599.81624 L 335.78602,562.4406 L 337.80633,534.15633 z"
           id="path3491"
           sodipodi:nodetypes="ccsccc" />
        <path
           style="fill:#0840ff;fill-opacity:1;fill-rule:evenodd;stroke:#989898;stroke-width:1px;stroke-linecap:butt;stroke-linejoin:miter;stroke-opacity:1"
           d="M 322.14897,483.14122 L 641.35717,428.59298 C 641.35717,428.59298 677.72267,427.58283 680.75312,454.85695 C 683.78358,482.13107 647.41809,485.16152 647.41809,485.16152 L 328.20988,509.40519 L 322.14897,483.14122 z"
           id="path3493"
           sodipodi:nodetypes="ccsccc" />
        <path
           style="fill:#cee7ff;fill-opacity:1;fill-rule:evenodd;stroke:none;stroke-width:1px;stroke-linecap:butt;stroke-linejoin:miter;stroke-opacity:1;filter:url(#filter3207)"
           d="M 347.14286,543.07647 L 660,561.6479 L 674.28571,573.79075 L 656.42857,583.79075 L 345.71429,552.36218 L 347.14286,543.07647 z"
           id="path3495"
           sodipodi:nodetypes="cccccc" />
        <path
           style="fill:#cee7ff;fill-opacity:1;fill-rule:evenodd;stroke:none;stroke-width:1px;stroke-linecap:butt;stroke-linejoin:miter;stroke-opacity:1;filter:url(#filter3207)"
           d="M 345,518.43361 L 658.57142,502.00504 L 672.85713,514.14789 L 654.99999,524.14789 L 343.57143,527.71932 L 345,518.43361 z"
           id="path3497"
           sodipodi:nodetypes="cccccc" />
        <path
           style="fill:#cee7ff;fill-opacity:1;fill-rule:evenodd;stroke:none;stroke-width:1px;stroke-linecap:butt;stroke-linejoin:miter;stroke-opacity:1;filter:url(#filter3207)"
           d="M 331.07143,490.93362 L 648.21428,446.64791 L 666.07142,453.07647 L 653.21428,468.79076 L 329.64286,500.21933 L 331.07143,490.93362 z"
           id="path3499"
           sodipodi:nodetypes="cccccc" />
      </g>
      <path
         transform="translate(76.724438,18.35606)"
         d="M 354.56355,505.86966 A 61.619305,61.619305 0 1 1 231.32494,505.86966 A 61.619305,61.619305 0 1 1 354.56355,505.86966 z"
         sodipodi:ry="61.619305"
         sodipodi:rx="61.619305"
         sodipodi:cy="505.86966"
         sodipodi:cx="292.94424"
         id="path2392"
         style="opacity:0.9958678;fill:#0104ad;fill-opacity:1;fill-rule:nonzero;stroke:none;stroke-width:0.80000001;stroke-linecap:butt;stroke-linejoin:round;stroke-miterlimit:4;stroke-dasharray:none;stroke-opacity:1"
         sodipodi:type="arc" />
      <path
         transform="matrix(0.5819672,0,0,0.5819672,199.68981,230.33124)"
         d="M 354.56355,505.86966 A 61.619305,61.619305 0 1 1 231.32494,505.86966 A 61.619305,61.619305 0 1 1 354.56355,505.86966 z"
         sodipodi:ry="61.619305"
         sodipodi:rx="61.619305"
         sodipodi:cy="505.86966"
         sodipodi:cx="292.94424"
         id="path3313"
         style="opacity:0.9958678;fill:#a9aaff;fill-opacity:1;fill-rule:nonzero;stroke:none;stroke-width:0.80000001;stroke-linecap:butt;stroke-linejoin:round;stroke-miterlimit:4;stroke-dasharray:none;stroke-opacity:1;filter:url(#filter3475)"
         sodipodi:type="arc" />
    </g>
  </g>
</svg>
