<?xml version="1.0" encoding="UTF-8" standalone="no"?>
<!-- Created with Inkscape (http://www.inkscape.org/) -->
<svg
   xmlns:dc="http://purl.org/dc/elements/1.1/"
   xmlns:cc="http://creativecommons.org/ns#"
   xmlns:rdf="http://www.w3.org/1999/02/22-rdf-syntax-ns#"
   xmlns:svg="http://www.w3.org/2000/svg"
   xmlns="http://www.w3.org/2000/svg"
   xmlns:xlink="http://www.w3.org/1999/xlink"
   xmlns:sodipodi="http://sodipodi.sourceforge.net/DTD/sodipodi-0.dtd"
   xmlns:inkscape="http://www.inkscape.org/namespaces/inkscape"
   width="128.00000px"
   height="128.00000px"
   id="svg2"
   sodipodi:version="0.32"
   inkscape:version="0.45.1+0.46pre1"
   sodipodi:docbase="/home/nicu/Desktop/svg"
   sodipodi:docname="8ball.svg"
   inkscape:export-filename="/home/nicu/Desktop/8ball.png"
   inkscape:export-xdpi="90.000000"
   inkscape:export-ydpi="90.000000"
   inkscape:output_extension="org.inkscape.output.svg.inkscape">
  <defs
     id="defs4">
    <linearGradient
       id="linearGradient1344">
      <stop
         style="stop-color:#b2b2b2;stop-opacity:1.0000000;"
         offset="0.0000000"
         id="stop1346" />
      <stop
         style="stop-color:#ffffff;stop-opacity:0.0000000;"
         offset="1.0000000"
         id="stop1348" />
    </linearGradient>
    <linearGradient
       id="linearGradient1334">
      <stop
         style="stop-color:#ffffff;stop-opacity:1;"
         offset="0"
         id="stop1336" />
      <stop
         style="stop-color:#ffffff;stop-opacity:0.36458337;"
         offset="1.0000000"
         id="stop1338" />
    </linearGradient>
    <linearGradient
       id="linearGradient1321">
      <stop
         style="stop-color:#ffffff;stop-opacity:0.41666663;"
         offset="0.0000000"
         id="stop1323" />
      <stop
         style="stop-color:#ffffff;stop-opacity:0;"
         offset="1"
         id="stop1325" />
    </linearGradient>
    <radialGradient
       inkscape:collect="always"
       xlink:href="#linearGradient1334"
       id="radialGradient1419"
       gradientUnits="userSpaceOnUse"
       gradientTransform="matrix(1.59203,-1.287341,1.664003,2.057835,-1126.339,260.9946)"
       cx="574.01813"
       cy="469.34027"
       fx="574.01813"
       fy="469.34027"
       r="41.500000" />
    <radialGradient
       inkscape:collect="always"
       xlink:href="#linearGradient1321"
       id="radialGradient1421"
       gradientUnits="userSpaceOnUse"
       gradientTransform="matrix(0.81243,-1.040116,0.926561,0.723747,-439.6497,520.1753)"
       cx="364.17529"
       cy="525.43164"
       fx="364.17529"
       fy="525.43164"
       r="88.500000" />
    <radialGradient
       inkscape:collect="always"
       xlink:href="#linearGradient1344"
       id="radialGradient1423"
       gradientUnits="userSpaceOnUse"
       gradientTransform="matrix(1.045185,6.432143e-3,-3.080109e-3,0.574552,-15.46227,259.1632)"
       cx="384.15509"
       cy="615.62531"
       fx="384.15509"
       fy="615.62531"
       r="23.000000" />
    <radialGradient
       inkscape:collect="always"
       xlink:href="#linearGradient1344"
       id="radialGradient1425"
       gradientUnits="userSpaceOnUse"
       gradientTransform="matrix(1.045185,6.432143e-3,-3.080109e-3,0.574552,-15.46227,259.1632)"
       cx="384.15509"
       cy="615.62531"
       fx="384.15509"
       fy="615.62531"
       r="23.000000" />
    <filter
       inkscape:collect="always"
       id="filter3317"
       x="-0.16538867"
       width="1.3307773"
       y="-0.23621167"
       height="1.4724233">
      <feGaussianBlur
         inkscape:collect="always"
         stdDeviation="3.0793147"
         id="feGaussianBlur3319" />
    </filter>
    <filter
       inkscape:collect="always"
       id="filter3369"
       x="-0.10224231"
       width="1.2044846"
       y="-0.060180054"
       height="1.1203601">
      <feGaussianBlur
         inkscape:collect="always"
         stdDeviation="1.2131839"
         id="feGaussianBlur3371" />
    </filter>
  </defs>
  <sodipodi:namedview
     id="base"
     pagecolor="#ffffff"
     bordercolor="#666666"
     borderopacity="1.0"
     inkscape:pageopacity="0.0"
     inkscape:pageshadow="2"
     inkscape:zoom="1"
     inkscape:cx="64"
     inkscape:cy="64"
     inkscape:document-units="px"
     inkscape:current-layer="layer1"
     showgrid="false"
     inkscape:window-width="1152"
     inkscape:window-height="791"
     inkscape:window-x="0"
     inkscape:window-y="24" />
  <metadata
     id="metadata7">
    <rdf:RDF>
      <cc:Work
         rdf:about="">
        <dc:format>image/svg+xml</dc:format>
        <dc:type
           rdf:resource="http://purl.org/dc/dcmitype/StillImage" />
      </cc:Work>
    </rdf:RDF>
  </metadata>
  <g
     inkscape:label="Layer 1"
     inkscape:groupmode="layer"
     id="layer1">
    <path
       sodipodi:type="arc"
       style="fill:#000000;fill-opacity:1;stroke:none;stroke-width:1;stroke-miterlimit:4;stroke-dasharray:none;stroke-opacity:1"
       id="path1306"
       sodipodi:cx="361.5"
       sodipodi:cy="548.86218"
       sodipodi:rx="88.5"
       sodipodi:ry="88.5"
       d="M 450,548.86218 A 88.5,88.5 0 1 1 273,548.86218 A 88.5,88.5 0 1 1 450,548.86218 z"
       transform="matrix(0.5489895,0.3722599,-0.3722599,0.5489895,70.163075,-371.59131)" />
    <path
       sodipodi:type="arc"
       style="fill:url(#radialGradient1419);fill-opacity:1;stroke:none;stroke-width:1;stroke-miterlimit:4;stroke-dasharray:none;stroke-opacity:1"
       id="path1308"
       sodipodi:cx="568.5"
       sodipodi:cy="487.86218"
       sodipodi:rx="41.5"
       sodipodi:ry="41.5"
       d="M 610,487.86218 A 41.5,41.5 0 1 1 527,487.86218 A 41.5,41.5 0 1 1 610,487.86218 z"
       transform="matrix(0.5489895,0.3722599,-0.3722599,0.5489895,-57.307797,-421.16204)" />
    <path
       style="font-size:65.13934326px;font-style:normal;font-variant:normal;font-weight:bold;font-stretch:normal;text-align:start;line-height:125%;writing-mode:lr-tb;text-anchor:start;fill:#000000;fill-opacity:1;stroke:none;stroke-width:1px;stroke-linecap:butt;stroke-linejoin:miter;stroke-opacity:1;font-family:Bitstream Vera Sans"
       d="M 72.335316,58.28727 C 71.078077,57.434777 70.358967,57.325067 69.218091,57.554058 C 68.077189,57.783049 66.592677,58.335751 65.724404,59.616245 C 64.856111,60.896745 64.357654,61.994679 64.567125,63.139316 C 64.784461,64.272305 65.690788,65.379672 66.948013,66.232178 C 68.193578,67.076771 69.715135,67.615709 70.836503,67.390472 C 71.965732,67.153581 72.626399,66.165636 73.494705,64.885142 C 74.370858,63.593 74.524883,62.014737 74.3192,60.889635 C 74.121357,59.752898 73.580867,59.13187 72.335316,58.28727 M 68.932388,52.742579 C 67.672848,51.191797 66.836546,49.492449 66.70429,47.958316 C 66.571995,46.424196 67.641023,45.347799 68.643508,43.86939 C 70.135362,41.669283 72.826204,40.923476 75.249047,40.883983 C 77.671836,40.844536 79.245191,41.255305 82.42318,43.410207 C 85.577829,45.549356 86.640316,47.234364 87.500258,49.499779 C 88.368027,51.753579 88.516924,54.301573 87.017203,56.513334 C 86.014698,57.991737 85.051347,59.263177 83.565569,59.700106 C 82.091365,60.144935 80.600041,59.957493 78.693279,59.361259 C 80.131134,61.049987 80.627475,62.550591 80.773978,64.264266 C 80.939949,65.974201 80.750451,67.867909 79.613826,69.544207 C 77.861447,72.12847 76.196107,73.730731 73.573425,73.889565 C 70.970231,74.044638 67.129698,73.140872 63.753859,70.851777 C 60.366353,68.554769 58.186198,65.437704 57.343681,62.946163 C 56.520679,60.450868 57.37932,58.23991 59.131673,55.655634 C 60.26833,53.979355 62.178017,53.128686 63.816362,52.642229 C 65.47422,52.15205 66.831432,52.031694 68.932388,52.742579 M 74.044129,48.587257 C 73.341595,49.623312 72.874785,50.47081 73.066319,51.416344 C 73.269455,52.369785 74.117822,53.352895 75.188806,54.079089 C 76.236462,54.789503 77.4176,55.244262 78.366922,55.072275 C 79.316184,54.900301 79.959432,54.110748 80.66198,53.0747 C 81.364467,52.038672 81.519341,50.741364 81.31996,49.807457 C 81.128406,48.861923 80.6055,48.346274 79.55785,47.635853 C 78.48686,46.909665 77.837661,46.815609 76.876759,46.979683 C 75.927444,47.151677 74.738737,47.56287 74.044129,48.587257"
       id="text1314"
       sodipodi:nodetypes="csscscscccsssscscccscscsscccssscscc" />
    <path
       d="M 450,548.86218 A 88.5,88.5 0 1 1 273,548.86218 A 88.5,88.5 0 1 1 450,548.86218 z"
       sodipodi:ry="88.5"
       sodipodi:rx="88.5"
       sodipodi:cy="548.86218"
       sodipodi:cx="361.5"
       id="path1319"
       style="fill:url(#radialGradient1421);fill-opacity:1;stroke:none;stroke-width:1;stroke-miterlimit:4;stroke-dasharray:none;stroke-opacity:1"
       sodipodi:type="arc"
       transform="matrix(0.5489895,0.3722599,-0.3722599,0.5489895,70.163075,-371.59131)" />
    <path
       sodipodi:type="arc"
       style="fill:url(#radialGradient1423);fill-opacity:1;stroke:none;stroke-width:1;stroke-miterlimit:4;stroke-dasharray:none;stroke-opacity:1;filter:url(#filter3317)"
       id="path1342"
       sodipodi:cx="385"
       sodipodi:cy="614.86218"
       sodipodi:rx="23"
       sodipodi:ry="14.5"
       d="M 408,614.86218 A 23,14.5 0 1 1 362,614.86218 A 23,14.5 0 1 1 408,614.86218 z"
       transform="matrix(0.937101,0.2885872,-0.26927,0.8743733,-143.28198,-544.32445)" />
    <path
       transform="matrix(0.1281489,0.5225006,-0.4875262,0.1195711,270.19174,-199.42735)"
       d="M 408,614.86218 A 23,14.5 0 1 1 362,614.86218 A 23,14.5 0 1 1 408,614.86218 z"
       sodipodi:ry="14.5"
       sodipodi:rx="23"
       sodipodi:cy="614.86218"
       sodipodi:cx="385"
       id="path1370"
       style="fill:url(#radialGradient1425);fill-opacity:1;stroke:none;stroke-width:1;stroke-miterlimit:4;stroke-dasharray:none;stroke-opacity:1;filter:url(#filter3369)"
       sodipodi:type="arc" />
  </g>
</svg>
