<?xml version="1.0" encoding="UTF-8" standalone="no"?>
<!-- Created with Inkscape (http://www.inkscape.org/) -->
<svg
   xmlns:dc="http://purl.org/dc/elements/1.1/"
   xmlns:cc="http://creativecommons.org/ns#"
   xmlns:rdf="http://www.w3.org/1999/02/22-rdf-syntax-ns#"
   xmlns:svg="http://www.w3.org/2000/svg"
   xmlns="http://www.w3.org/2000/svg"
   xmlns:sodipodi="http://sodipodi.sourceforge.net/DTD/sodipodi-0.dtd"
   xmlns:inkscape="http://www.inkscape.org/namespaces/inkscape"
   inkscape:export-ydpi="90.000000"
   inkscape:export-xdpi="90.000000"
   inkscape:export-filename="P:\cliparts\pansement.png"
   sodipodi:docname="pansement.svg"
   sodipodi:docbase="P:\cliparts"
   inkscape:version="0.46"
   sodipodi:version="0.32"
   id="svg26938"
   height="80"
   width="88"
   inkscape:output_extension="org.inkscape.output.svg.inkscape"
   version="1.0">
  <defs
     id="defs3" />
  <sodipodi:namedview
     inkscape:window-y="-4"
     inkscape:window-x="-4"
     inkscape:window-height="1003"
     inkscape:window-width="1680"
     inkscape:current-layer="layer1"
     inkscape:document-units="px"
     inkscape:cy="40"
     inkscape:cx="32.748451"
     inkscape:zoom="10.0875"
     inkscape:pageshadow="2"
     inkscape:pageopacity="0.0"
     borderopacity="1.0"
     bordercolor="#666666"
     pagecolor="#ffffff"
     id="base"
     showgrid="false" />
  <metadata
     id="metadata4">
    <rdf:RDF>
      <cc:Work
         rdf:about="">
        <dc:format>image/svg+xml</dc:format>
        <dc:type
           rdf:resource="http://purl.org/dc/dcmitype/StillImage" />
        <dc:title>Pansement</dc:title>
        <dc:date>2005-05-30</dc:date>
        <dc:creator>
          <cc:Agent>
            <dc:title>Jean-Victor Balin</dc:title>
          </cc:Agent>
        </dc:creator>
        <dc:description>jean.victor.balin@gmail.com</dc:description>
        <cc:license
           rdf:resource="http://creativecommons.org/licenses/publicdomain/" />
        <dc:language>fr-FR</dc:language>
        <dc:subject>
          <rdf:Bag>
            <rdf:li>medecine</rdf:li>
          </rdf:Bag>
        </dc:subject>
      </cc:Work>
      <cc:License
         rdf:about="http://creativecommons.org/licenses/publicdomain/">
        <cc:permits
           rdf:resource="http://creativecommons.org/ns#Reproduction" />
        <cc:permits
           rdf:resource="http://creativecommons.org/ns#Distribution" />
        <cc:permits
           rdf:resource="http://creativecommons.org/ns#DerivativeWorks" />
      </cc:License>
    </rdf:RDF>
  </metadata>
  <g
     id="layer1"
     inkscape:groupmode="layer"
     inkscape:label="Layer 1">
    <g
       id="g2392">
      <path
         id="rect1445"
         d="M 81.965971,8.0707612 C 77.325546,2.5463253 71.977077,-0.52412795 69.513771,0.77728622 C 69.518874,0.97610527 69.466277,1.1662936 69.33191,1.3381632 C 69.090827,1.6465045 68.704108,1.6999337 68.356591,1.5860497 L 60.747328,7.9776907 C 61.141615,8.2859544 61.208711,8.8831961 60.900455,9.2774767 C 60.592213,9.6717585 60.018878,9.7187602 59.624597,9.4105042 C 59.517352,9.326658 59.489534,9.1951234 59.43126,9.0831632 L 56.846982,11.253909 C 56.827702,11.417248 56.822663,11.595163 56.716807,11.730559 C 56.522702,11.978858 56.231129,12.046815 55.937699,12.01769 L 46.414156,20.017291 C 46.63272,19.996282 46.858247,20.038445 47.04299,20.182882 C 47.437271,20.491124 47.504373,21.088387 47.196117,21.482668 C 46.887846,21.876947 46.31454,21.923951 45.920259,21.615695 C 45.604326,21.3687 45.568288,20.974046 45.696301,20.620276 L 43.183809,22.730724 C 43.361297,23.041575 43.418817,23.411289 43.187627,23.706998 C 42.879363,24.101285 42.30605,24.148281 41.911769,23.840025 C 41.903096,23.833245 41.900031,23.823113 41.89167,23.816097 L 33.899551,30.52933 C 34.271226,30.841163 34.337883,31.375552 34.036407,31.761159 C 33.728129,32.155445 33.151001,32.246471 32.756721,31.938215 C 32.658149,31.861149 32.640403,31.740299 32.583483,31.634802 L 29.903491,33.885946 C 29.870341,33.99535 29.882891,34.115549 29.808732,34.210413 C 29.638796,34.427766 29.388937,34.517663 29.137779,34.52913 L 19.829593,42.347836 C 20.007895,42.360737 20.202971,42.36668 20.350271,42.48184 C 20.744543,42.790102 20.791554,43.363417 20.483298,43.757697 C 20.175042,44.151978 19.621821,44.222909 19.22754,43.914653 C 18.96641,43.710496 18.911449,43.400314 18.944238,43.091517 L 7.171416,52.980471 C 7.5191282,53.296644 7.55894,53.831537 7.2642445,54.208472 C 6.9559873,54.602766 6.4027671,54.673684 6.0084865,54.365428 C 5.9185877,54.295142 5.9109628,54.176905 5.8553485,54.085944 L 3.534284,56.035595 C 3.6179951,56.304023 3.6106042,56.582188 3.421334,56.82427 C 3.1545596,57.165476 2.7097548,57.219858 2.337859,57.04057 L 1.189291,58.005346 C 0.50146725,58.583106 0.3282648,59.630655 0.42834053,60.889175 C 0.44244845,60.722383 0.44588703,60.556588 0.55851553,60.412525 C 0.86677794,60.018252 1.419993,59.947313 1.8142735,60.255569 C 2.2085541,60.563825 2.2794855,61.117046 1.9712295,61.511327 C 1.6629812,61.905601 1.1097521,61.976539 0.71547153,61.668283 C 0.54592901,61.535722 0.45089482,61.344364 0.40536653,61.153343 C 0.59785158,62.775738 1.3135423,64.765625 2.5205645,66.926782 C 2.8294561,66.755263 3.2011233,66.691766 3.4968385,66.922964 C 3.8911396,67.231229 3.938122,67.804541 3.629866,68.198821 C 3.5663606,68.280047 3.4562118,68.278644 3.3743105,68.33186 C 4.1340244,69.524508 4.9362088,70.725754 5.9451265,71.926873 C 9.6295032,76.313131 13.777269,79.133978 16.577817,79.483539 C 16.183543,79.175291 16.116434,78.578034 16.42469,78.183753 C 16.732945,77.789487 17.306267,77.74247 17.700548,78.050726 C 18.094814,78.35898 18.16576,78.912203 17.857504,79.306484 C 17.766877,79.422401 17.631865,79.458861 17.506234,79.51992 C 18.026511,79.466501 18.497793,79.340016 18.856752,79.038498 L 20.890674,77.33004 C 20.793817,77.298301 20.696167,77.306289 20.610236,77.23911 C 20.215956,76.93084 20.124924,76.353704 20.43318,75.959423 C 20.74143,75.565135 21.338685,75.49804 21.732966,75.806296 C 21.912764,75.946868 22.004626,76.156575 22.039242,76.365264 L 24.503878,74.295016 C 24.4446,74.029493 24.485146,73.734907 24.660856,73.51017 C 24.913878,73.186549 25.335713,73.141327 25.700303,73.290041 L 37.832052,63.099594 C 37.643741,62.791592 37.590264,62.427702 37.828234,62.12332 C 38.13649,61.72904 38.689711,61.658108 39.083992,61.966364 C 39.101338,61.979925 39.108026,61.999656 39.124191,62.014221 L 47.618809,54.878899 C 47.525301,54.84684 47.419091,54.851075 47.33837,54.787968 C 46.944091,54.479698 46.897087,53.906391 47.205343,53.512111 C 47.513592,53.117822 48.06682,53.046899 48.461101,53.355155 C 48.640898,53.495726 48.7228,53.704567 48.767377,53.914123 L 51.160227,51.904173 C 50.95582,51.581455 50.89538,51.173003 51.140138,50.859942 C 51.448402,50.465655 52.021715,50.418659 52.415996,50.726915 C 52.443597,50.748486 52.42795,50.794957 52.452366,50.8188 L 61.186268,43.482482 C 61.004892,43.477334 60.818339,43.467902 60.66559,43.348478 C 60.271324,43.040223 60.204207,42.442973 60.512463,42.048692 C 60.820725,41.654419 61.39404,41.607409 61.788321,41.915665 C 62.051172,42.121171 62.11273,42.435227 62.071623,42.738801 L 64.368759,40.809249 C 64.385484,40.651777 64.370898,40.485855 64.475005,40.352698 C 64.668102,40.105703 64.955148,40.043939 65.254113,40.065567 L 74.5623,32.246862 C 74.357867,32.256196 74.154421,32.22342 73.977494,32.0851 C 73.583212,31.776858 73.512282,31.223623 73.820538,30.829342 C 74.1288,30.435069 74.705944,30.344031 75.100225,30.652287 C 75.399641,30.886383 75.432641,31.258357 75.328012,31.603678 L 78.008004,29.352534 C 77.836169,29.048413 77.793095,28.695897 78.024285,28.400188 C 78.332549,28.005901 78.909691,27.914877 79.303972,28.223133 C 79.312644,28.229913 79.315733,28.240026 79.324071,28.247061 L 86.765835,21.996117 C 88.063364,20.906216 87.756895,18.308953 86.443354,15.24738 C 86.199816,15.295127 85.961053,15.265753 85.746564,15.09806 C 85.35229,14.789812 85.281352,14.236583 85.589608,13.842302 C 85.624754,13.797357 85.68844,13.8022 85.72935,13.765733 C 84.769071,11.918008 83.591709,10.006205 81.965971,8.0707612 z M 83.822772,11.204429 C 84.217054,11.512671 84.287984,12.065907 83.979728,12.460187 C 83.671458,12.854467 83.118251,12.925399 82.72397,12.617143 C 82.329682,12.308894 82.238659,11.731737 82.546915,11.337457 C 82.855178,10.94317 83.428491,10.896173 83.822772,11.204429 z M 80.977245,8.9828967 C 81.371538,9.291168 81.442457,9.8443741 81.134201,10.238655 C 80.825946,10.632921 80.272723,10.703867 79.878443,10.395611 C 79.48417,10.087348 79.393131,9.5102048 79.701387,9.1159242 C 80.009635,8.7216501 80.582964,8.6746407 80.977245,8.9828967 z M 78.131717,6.7613642 C 78.52601,7.0696355 78.596929,7.6228416 78.288673,8.0171222 C 77.980418,8.4113887 77.427196,8.4823342 77.032915,8.1740782 C 76.638642,7.8658158 76.547604,7.2886723 76.85586,6.8943917 C 77.164116,6.5001111 77.737436,6.4531082 78.131717,6.7613642 z M 75.310118,4.5197322 C 75.7044,4.8279741 75.751402,5.4013091 75.443146,5.7955897 C 75.134875,6.1898691 74.581668,6.2608017 74.187388,5.9525457 C 73.793106,5.6443038 73.702076,5.0671398 74.010332,4.6728592 C 74.318602,4.2785799 74.915837,4.2114762 75.310118,4.5197322 z M 72.464591,2.2981997 C 72.858857,2.6064545 72.905874,3.1797766 72.597618,3.5740572 C 72.289363,3.9683237 71.736141,4.0392692 71.34186,3.7310132 C 70.947594,3.4227585 70.856549,2.8456073 71.164805,2.4513267 C 71.473053,2.0570526 72.07031,1.9899437 72.464591,2.2981997 z M 85.485238,17.847896 C 85.879517,18.156166 85.946621,18.753401 85.638365,19.147682 C 85.330115,19.54197 84.756788,19.588965 84.362507,19.280709 C 83.96822,18.972446 83.897295,18.419232 84.205551,18.024951 C 84.513793,17.630669 85.090957,17.53964 85.485238,17.847896 z M 82.63971,15.626363 C 83.033991,15.934619 83.101093,16.531869 82.792837,16.926149 C 82.48458,17.320444 81.93136,17.391361 81.537079,17.083105 C 81.142784,16.774848 81.051768,16.197699 81.360024,15.803419 C 81.668273,15.40913 82.245429,15.318107 82.63971,15.626363 z M 79.814282,13.428759 C 80.208563,13.737015 80.255566,14.310336 79.94731,14.704617 C 79.639061,15.098891 79.085832,15.169829 78.691552,14.861573 C 78.297272,14.553303 78.20624,13.976167 78.514496,13.581886 C 78.822746,13.187598 79.420001,13.120503 79.814282,13.428759 z M 76.968755,11.207227 C 77.363042,11.51549 77.433967,12.068704 77.125711,12.462985 C 76.817469,12.857267 76.240305,12.948296 75.846024,12.64004 C 75.451745,12.33177 75.384641,11.734535 75.692897,11.340254 C 76.001147,10.945966 76.574474,10.898971 76.968755,11.207227 z M 74.123227,8.9856942 C 74.517522,9.2939514 74.588439,9.8471716 74.280183,10.241452 C 73.971926,10.635747 73.394777,10.726764 73.000497,10.418508 C 72.606202,10.110251 72.539114,9.5130023 72.84737,9.1187217 C 73.155627,8.7244271 73.728946,8.6774382 74.123227,8.9856942 z M 84.836261,21.739585 C 85.230562,22.04785 85.321572,22.624991 85.013316,23.019271 C 84.705046,23.413551 84.131739,23.460555 83.737459,23.152299 C 83.34317,22.844049 83.272247,22.290821 83.580503,21.896541 C 83.888766,21.502254 84.44198,21.431329 84.836261,21.739585 z M 71.2777,6.7641617 C 71.671987,7.0724254 71.742912,7.6256391 71.434656,8.0199197 C 71.126398,8.4142144 70.54925,8.5052312 70.154969,8.1969752 C 69.760674,7.888718 69.693586,7.2914698 70.001842,6.8971892 C 70.310092,6.502901 70.883419,6.4559057 71.2777,6.7641617 z M 81.931389,19.690335 C 82.325677,19.998585 82.396601,20.551813 82.088345,20.946093 C 81.780081,21.34038 81.226868,21.411305 80.832587,21.103049 C 80.438305,20.794807 80.347276,20.217643 80.655532,19.823363 C 80.963802,19.429083 81.537108,19.382079 81.931389,19.690335 z M 68.432172,4.5426292 C 68.826459,4.8508929 68.897384,5.4041066 68.589128,5.7983872 C 68.280886,6.192669 67.703722,6.2836987 67.309442,5.9754427 C 66.915162,5.6671727 66.848059,5.0699373 67.156315,4.6756567 C 67.464564,4.2813685 68.037891,4.2343732 68.432172,4.5426292 z M 78.65324,17.342457 C 79.047506,17.650711 79.138551,18.227863 78.830295,18.622143 C 78.522033,19.016416 77.92479,19.083526 77.530509,18.77527 C 77.136235,18.467022 77.089226,17.893693 77.397482,17.499413 C 77.705736,17.105146 78.258959,17.034201 78.65324,17.342457 z M 75.807712,15.120924 C 76.201986,15.429173 76.293024,16.00633 75.984768,16.400611 C 75.676497,16.79489 75.079262,16.861994 74.684982,16.553738 C 74.2907,16.245496 74.243698,15.672161 74.551954,15.27788 C 74.860216,14.883607 75.413431,14.812668 75.807712,15.120924 z M 72.962185,12.899392 C 73.356473,13.207641 73.447496,13.784798 73.13924,14.179078 C 72.830976,14.573365 72.257663,14.620362 71.863383,14.312106 C 71.469101,14.003864 71.398171,13.450628 71.706427,13.056348 C 72.014689,12.662075 72.567904,12.591136 72.962185,12.899392 z M 70.116657,10.677859 C 70.510938,10.986115 70.601969,11.563265 70.293713,11.957546 C 69.985464,12.35182 69.412136,12.398829 69.017855,12.090573 C 68.623589,11.782318 68.552643,11.229096 68.860899,10.834815 C 69.169161,10.440542 69.722376,10.369603 70.116657,10.677859 z M 80.642092,23.548518 C 81.036379,23.856781 81.127403,24.433924 80.819147,24.828204 C 80.510905,25.222486 79.913642,25.289587 79.519361,24.981331 C 79.125082,24.673061 79.078078,24.099754 79.386334,23.705474 C 79.694583,23.311185 80.247811,23.240262 80.642092,23.548518 z M 67.27113,8.4563267 C 67.665402,8.7645891 67.756441,9.3417326 67.448185,9.7360132 C 67.139929,10.130294 66.566608,10.177297 66.172328,9.8690407 C 65.778053,9.5607924 65.707116,9.0075633 66.015372,8.6132827 C 66.323626,8.2190162 66.876849,8.1480707 67.27113,8.4563267 z M 77.796564,21.326985 C 78.190843,21.635255 78.281876,22.212391 77.97362,22.606672 C 77.66537,23.00096 77.068114,23.068055 76.673834,22.759799 C 76.279547,22.451535 76.23255,21.878222 76.540806,21.483941 C 76.849071,21.08964 77.402283,21.018729 77.796564,21.326985 z M 64.449531,6.2146947 C 64.843812,6.5229366 64.910914,7.1202001 64.602658,7.5144807 C 64.294402,7.9087613 63.721081,7.9557642 63.3268,7.6475082 C 62.932518,7.3392663 62.861588,6.7860308 63.169844,6.3917502 C 63.478114,5.9974709 64.05525,5.9064387 64.449531,6.2146947 z M 74.951037,19.105453 C 75.345331,19.41371 75.436348,19.990859 75.128092,20.385139 C 74.819835,20.779434 74.222587,20.846522 73.828306,20.538266 C 73.434011,20.230009 73.387023,19.656689 73.695279,19.262409 C 74.003536,18.868114 74.556756,18.797197 74.951037,19.105453 z M 72.105509,16.88392 C 72.499796,17.192184 72.590821,17.769326 72.282565,18.163607 C 71.974307,18.557901 71.377059,18.62499 70.982779,18.316734 C 70.588484,18.008477 70.541495,17.435157 70.849751,17.040876 C 71.158001,16.646588 71.711228,16.575664 72.105509,16.88392 z M 69.259982,14.662388 C 69.654262,14.970644 69.745293,15.547794 69.437037,15.942074 C 69.128789,16.336348 68.55546,16.383358 68.16118,16.075102 C 67.7669,15.766832 67.695968,15.213624 68.004224,14.819344 C 68.312473,14.425055 68.865701,14.354132 69.259982,14.662388 z M 66.414454,12.440855 C 66.808733,12.749125 66.899766,13.326261 66.59151,13.720542 C 66.28326,14.11483 65.709933,14.161825 65.315652,13.853569 C 64.921365,13.545306 64.85044,12.992092 65.158696,12.597811 C 65.466961,12.20351 66.020173,12.132599 66.414454,12.440855 z M 63.592855,10.199223 C 63.987142,10.507487 64.054238,11.104729 63.745982,11.499009 C 63.437717,11.89331 62.864405,11.940293 62.470125,11.632037 C 62.075845,11.323767 62.004913,10.770559 62.313169,10.376279 C 62.621418,9.9819905 63.198574,9.8909672 63.592855,10.199223 z M 76.458444,26.0016 C 76.852737,26.309872 76.923656,26.863078 76.6154,27.257358 C 76.307122,27.651644 75.729994,27.74267 75.335714,27.434414 C 74.941441,27.126151 74.870502,26.572936 75.178758,26.178656 C 75.487014,25.784375 76.064163,25.693344 76.458444,26.0016 z M 73.612917,23.780068 C 74.007206,24.088303 74.078129,24.641545 73.769873,25.035826 C 73.46161,25.430099 72.884467,25.521137 72.490186,25.212881 C 72.095912,24.904633 72.048903,24.331304 72.357159,23.937024 C 72.665422,23.542737 73.218636,23.471812 73.612917,23.780068 z M 70.767389,21.558535 C 71.161656,21.86679 71.232601,22.420013 70.924345,22.814293 C 70.616083,23.208566 70.038939,23.299605 69.644659,22.991349 C 69.250378,22.683093 69.203375,22.109772 69.511631,21.715491 C 69.819902,21.321198 70.373108,21.250279 70.767389,21.558535 z M 67.921862,19.337003 C 68.316136,19.645251 68.387074,20.19848 68.078818,20.592761 C 67.77054,20.987046 67.193412,21.078072 66.799131,20.769816 C 66.404858,20.461554 66.357848,19.888239 66.666104,19.493959 C 66.97436,19.099678 67.527581,19.028747 67.921862,19.337003 z M 65.076334,17.11547 C 65.470627,17.423742 65.541546,17.976948 65.23329,18.371228 C 64.925012,18.765514 64.347884,18.85654 63.953604,18.548284 C 63.559331,18.240021 63.51232,17.666707 63.820576,17.272426 C 64.128832,16.878146 64.682053,16.807214 65.076334,17.11547 z M 62.230807,14.893938 C 62.625115,15.202196 62.696019,15.755415 62.387763,16.149696 C 62.0795,16.543969 61.526285,16.614908 61.132005,16.306652 C 60.737724,15.998396 60.666793,15.445174 60.975049,15.050894 C 61.283312,14.656607 61.836526,14.585682 62.230807,14.893938 z M 59.385279,12.672405 C 59.77958,12.98067 59.870591,13.557811 59.562335,13.952092 C 59.254064,14.346371 58.680758,14.393375 58.286477,14.085119 C 57.892189,13.77687 57.821265,13.223642 58.129521,12.829361 C 58.437785,12.435074 58.990998,12.364149 59.385279,12.672405 z M 72.254697,28.430754 C 72.648978,28.73901 72.695981,29.312331 72.387725,29.706612 C 72.079476,30.100886 71.526247,30.171824 71.131967,29.863568 C 70.7377,29.555313 70.666755,29.00209 70.975011,28.60781 C 71.283273,28.213537 71.860416,28.122498 72.254697,28.430754 z M 69.40917,26.209222 C 69.803436,26.517476 69.850453,27.090799 69.542197,27.485079 C 69.233941,27.87936 68.68072,27.950291 68.286439,27.642035 C 67.892165,27.333787 67.821227,26.780558 68.129483,26.386277 C 68.437738,25.992011 69.014889,25.900966 69.40917,26.209222 z M 66.563642,23.987689 C 66.957924,24.295931 67.004926,24.869266 66.69667,25.263547 C 66.388399,25.657826 65.835192,25.728759 65.440912,25.420503 C 65.04663,25.112261 64.9757,24.559025 65.283956,24.164745 C 65.592226,23.770465 66.169361,23.679433 66.563642,23.987689 z M 63.718115,21.766157 C 64.112403,22.074406 64.183327,22.627634 63.875071,23.021915 C 63.566815,23.416195 62.989665,23.507226 62.595384,23.19897 C 62.201083,22.890705 62.154101,22.317393 62.462357,21.923113 C 62.770627,21.528833 63.323834,21.457901 63.718115,21.766157 z M 60.872587,19.544624 C 61.266868,19.85288 61.337799,20.406102 61.029543,20.800382 C 60.721295,21.194656 60.144137,21.285694 59.749857,20.977438 C 59.355571,20.66916 59.308573,20.095861 59.616829,19.70158 C 59.925091,19.307307 60.478306,19.236368 60.872587,19.544624 z M 58.02706,17.323092 C 58.421332,17.631354 58.512371,18.208498 58.204115,18.602778 C 57.895859,18.997059 57.29861,19.064161 56.904329,18.755905 C 56.510055,18.447657 56.463046,17.874328 56.771302,17.480048 C 57.079556,17.085781 57.632779,17.014836 58.02706,17.323092 z M 71.141501,33.324555 C 71.535795,33.632812 71.606713,34.186032 71.298457,34.580313 C 70.990199,34.974607 70.436979,35.045525 70.042699,34.737269 C 69.648404,34.429012 69.557387,33.851863 69.865643,33.457582 C 70.1739,33.063288 70.74722,33.016299 71.141501,33.324555 z M 55.181532,15.101559 C 55.57582,15.409809 55.666844,15.986965 55.358588,16.381246 C 55.050324,16.775533 54.453082,16.842629 54.058802,16.534373 C 53.66452,16.226131 53.617518,15.652796 53.925774,15.258515 C 54.234044,14.864236 54.787251,14.793303 55.181532,15.101559 z M 68.319902,31.082923 C 68.714196,31.39118 68.761185,31.9645 68.452929,32.35878 C 68.144672,32.753075 67.591452,32.823992 67.197171,32.515736 C 66.802876,32.207479 66.731959,31.654259 67.040215,31.259978 C 67.348472,30.865684 67.925621,30.774667 68.319902,31.082923 z M 65.474374,28.86139 C 65.868676,29.169641 65.915658,29.742967 65.607402,30.137248 C 65.299152,30.531536 64.745924,30.60246 64.351644,30.294204 C 63.957357,29.98594 63.886432,29.432726 64.194688,29.038446 C 64.502945,28.644151 65.080093,28.553134 65.474374,28.86139 z M 62.628847,26.639858 C 63.023141,26.948115 63.07013,27.521435 62.761874,27.915715 C 62.453617,28.31001 61.900397,28.380927 61.506116,28.072671 C 61.111821,27.764414 61.040904,27.211194 61.34916,26.816913 C 61.657417,26.422619 62.234566,26.331602 62.628847,26.639858 z M 59.783319,24.418325 C 60.177606,24.726589 60.224603,25.299902 59.916347,25.694183 C 59.608082,26.088484 59.054869,26.159395 58.660589,25.851139 C 58.266309,25.542869 58.195377,24.989661 58.503633,24.595381 C 58.811882,24.201092 59.389038,24.110069 59.783319,24.418325 z M 56.937792,22.196793 C 57.332071,22.505063 57.403004,23.05827 57.094748,23.452551 C 56.786506,23.846833 56.209342,23.937862 55.815061,23.629606 C 55.420774,23.321343 55.349849,22.768129 55.658105,22.373848 C 55.966347,21.979566 56.543511,21.888537 56.937792,22.196793 z M 54.092264,19.97526 C 54.486552,20.28351 54.577576,20.860666 54.26932,21.254947 C 53.961056,21.649234 53.363814,21.71633 52.969534,21.408074 C 52.575239,21.099817 52.52825,20.526497 52.836506,20.132216 C 53.144763,19.737922 53.697983,19.667004 54.092264,19.97526 z M 66.937754,35.753709 C 67.33202,36.061963 67.402966,36.615186 67.09471,37.009467 C 66.786447,37.40374 66.209304,37.494778 65.815023,37.186522 C 65.420749,36.878274 65.37374,36.304945 65.681996,35.910665 C 65.990244,35.516391 66.543473,35.445453 66.937754,35.753709 z M 51.246737,17.753728 C 51.641024,18.061991 51.732048,18.639134 51.423792,19.033414 C 51.115527,19.427715 50.518287,19.494797 50.124006,19.186541 C 49.729727,18.878271 49.682723,18.304964 49.990979,17.910684 C 50.299228,17.516395 50.852456,17.445472 51.246737,17.753728 z M 64.092226,33.532176 C 64.486508,33.840418 64.557438,34.393654 64.249182,34.787934 C 63.940912,35.182214 63.387705,35.253146 62.993424,34.94489 C 62.599136,34.636641 62.528212,34.083413 62.836468,33.689132 C 63.144724,33.294852 63.697945,33.22392 64.092226,33.532176 z M 61.246699,31.310644 C 61.64098,31.618886 61.711911,32.172121 61.403655,32.566402 C 61.095384,32.960681 60.542177,33.031614 60.147897,32.723358 C 59.753608,32.415108 59.682685,31.86188 59.990941,31.4676 C 60.299204,31.073313 60.852418,31.002388 61.246699,31.310644 z M 58.401171,29.089111 C 58.795457,29.397389 58.866383,29.950589 58.558127,30.344869 C 58.249865,30.739142 57.69665,30.810081 57.302369,30.501825 C 56.908088,30.193569 56.837157,29.640348 57.145413,29.246067 C 57.453661,28.851793 58.00689,28.780855 58.401171,29.089111 z M 55.579572,26.847479 C 55.973865,27.155751 56.020856,27.729056 55.7126,28.123337 C 55.404329,28.517616 54.851122,28.588549 54.456842,28.280293 C 54.062553,27.972043 53.99163,27.418815 54.299886,27.024535 C 54.608142,26.630254 55.185291,26.539223 55.579572,26.847479 z M 52.734045,24.625947 C 53.128346,24.934212 53.195428,25.531452 52.887172,25.925733 C 52.578901,26.320012 52.005595,26.367016 51.611314,26.05876 C 51.217026,25.750511 51.146102,25.197283 51.454358,24.803002 C 51.762614,24.408722 52.339764,24.317691 52.734045,24.625947 z M 49.888517,22.404414 C 50.282804,22.712678 50.3499,23.30992 50.041644,23.7042 C 49.733409,24.09849 49.160067,24.145484 48.765787,23.837228 C 48.371514,23.528965 48.300575,22.97575 48.608831,22.58147 C 48.917087,22.187189 49.494236,22.096158 49.888517,22.404414 z M 62.929264,37.978039 C 63.323558,38.286296 63.370547,38.859616 63.062291,39.253896 C 62.754034,39.648191 62.200814,39.719108 61.806533,39.410852 C 61.412238,39.102595 61.321222,38.525446 61.629478,38.131166 C 61.937735,37.736871 62.534983,37.669783 62.929264,37.978039 z M 60.083736,35.756506 C 60.478024,36.064756 60.52502,36.638083 60.216764,37.032364 C 59.908506,37.426658 59.355286,37.497576 58.961006,37.18932 C 58.566711,36.881063 58.495794,36.327842 58.80405,35.933562 C 59.112307,35.539267 59.689455,35.44825 60.083736,35.756506 z M 57.238209,33.534974 C 57.632481,33.843236 57.703421,34.396451 57.395165,34.790732 C 57.086909,35.185012 56.509759,35.276043 56.115478,34.967787 C 55.721191,34.659524 55.674195,34.08621 55.982451,33.69193 C 56.290692,33.297648 56.843928,33.226718 57.238209,33.534974 z M 54.392681,31.313441 C 54.786969,31.621691 54.857893,32.174919 54.549637,32.569199 C 54.241381,32.96348 53.664231,33.054511 53.269951,32.746255 C 52.875664,32.437991 52.828667,31.864678 53.136923,31.470397 C 53.445174,31.076095 53.9984,31.005185 54.392681,31.313441 z M 51.547154,29.091909 C 51.941448,29.400166 52.012366,29.953386 51.70411,30.347667 C 51.395852,30.741961 50.818704,30.832978 50.424423,30.524722 C 50.030128,30.216465 49.98314,29.643145 50.291396,29.248865 C 50.599653,28.85457 51.152873,28.783653 51.547154,29.091909 z M 48.701626,26.870376 C 49.095913,27.17864 49.166838,27.731854 48.858582,28.126134 C 48.550317,28.520435 47.973176,28.611446 47.578896,28.30319 C 47.184616,27.99492 47.137612,27.421613 47.445868,27.027332 C 47.754118,26.633044 48.307345,26.56212 48.701626,26.870376 z M 58.942793,39.694132 C 59.337075,40.002374 59.408005,40.55561 59.099749,40.94989 C 58.791487,41.344163 58.214343,41.435202 57.820063,41.126946 C 57.425788,40.818697 57.35868,40.22144 57.666936,39.82716 C 57.975206,39.43288 58.548512,39.385876 58.942793,39.694132 z M 45.856099,24.648844 C 46.250378,24.957114 46.321311,25.510321 46.013055,25.904602 C 45.704805,26.29889 45.151577,26.369814 44.757297,26.061558 C 44.36301,25.753294 44.292085,25.20008 44.600341,24.8058 C 44.908582,24.411518 45.461818,24.340588 45.856099,24.648844 z M 56.097266,37.4726 C 56.491532,37.780854 56.562478,38.334077 56.254222,38.728358 C 55.945959,39.122631 55.368816,39.213669 54.974535,38.905413 C 54.580261,38.597165 54.513152,37.999908 54.821408,37.605627 C 55.129686,37.211341 55.702985,37.164344 56.097266,37.4726 z M 53.251738,35.251067 C 53.64602,35.559309 53.71695,36.112545 53.408694,36.506825 C 53.100424,36.901105 52.547217,36.972037 52.152936,36.663781 C 51.758654,36.355539 51.667625,35.778375 51.975881,35.384095 C 52.284144,34.989808 52.857457,34.942811 53.251738,35.251067 z M 50.406211,33.029535 C 50.800485,33.337783 50.871423,33.891012 50.563167,34.285293 C 50.254889,34.679578 49.701689,34.750505 49.307409,34.442249 C 48.913136,34.133986 48.822097,33.556843 49.130353,33.162562 C 49.438609,32.768282 50.01193,32.721279 50.406211,33.029535 z M 47.560683,30.808002 C 47.95495,31.116257 48.025895,31.66948 47.717639,32.06376 C 47.409384,32.458027 46.856162,32.528972 46.461881,32.220716 C 46.0676,31.91246 45.97657,31.33531 46.284826,30.94103 C 46.593074,30.546756 47.166402,30.499746 47.560683,30.808002 z M 57.957863,43.623146 C 58.352151,43.931395 58.423075,44.484623 58.114819,44.878904 C 57.806555,45.273191 57.253341,45.344116 56.859061,45.03586 C 56.464766,44.727603 56.373749,44.150454 56.682005,43.756173 C 56.990262,43.361879 57.563582,43.31489 57.957863,43.623146 z M 44.739084,28.56637 C 45.133372,28.87462 45.180368,29.447947 44.872112,29.842228 C 44.563848,30.236515 44.010634,30.30744 43.616354,29.999184 C 43.222072,29.690942 43.131042,29.113778 43.439298,28.719497 C 43.747568,28.325218 44.344803,28.258114 44.739084,28.56637 z M 55.136264,41.381514 C 55.530551,41.689777 55.577547,42.263091 55.269291,42.657371 C 54.961049,43.051653 54.407814,43.122583 54.013533,42.814327 C 53.619254,42.506057 53.528222,41.928921 53.836478,41.534641 C 54.144727,41.140352 54.741983,41.073258 55.136264,41.381514 z M 41.893557,26.344838 C 42.287831,26.653086 42.33484,27.226415 42.026584,27.620695 C 41.718306,28.014981 41.165107,28.085907 40.770826,27.777651 C 40.37656,27.469396 40.285515,26.892245 40.593771,26.497965 C 40.902033,26.103692 41.499276,26.036582 41.893557,26.344838 z M 52.290736,39.159981 C 52.685015,39.468251 52.73202,40.041558 52.423764,40.435839 C 52.115514,40.830127 51.562286,40.901051 51.168006,40.592795 C 50.773719,40.284531 50.682694,39.707389 50.99095,39.313108 C 51.299192,38.918826 51.896455,38.851725 52.290736,39.159981 z M 49.445209,36.938449 C 49.839503,37.246706 49.886492,37.820026 49.578236,38.214306 C 49.269986,38.608594 48.716759,38.679518 48.322478,38.371262 C 47.928191,38.062999 47.837167,37.485856 48.145423,37.091576 C 48.45368,36.697281 49.050928,36.630193 49.445209,36.938449 z M 46.599681,34.716916 C 46.993976,35.025173 47.040965,35.598493 46.732709,35.992774 C 46.424451,36.387068 45.871231,36.457986 45.476951,36.14973 C 45.082656,35.841473 44.991639,35.264324 45.299895,34.870043 C 45.608152,34.475749 46.2054,34.40866 46.599681,34.716916 z M 43.754154,32.495384 C 44.148426,32.803646 44.219366,33.356861 43.91111,33.751142 C 43.60286,34.14543 43.025704,34.236453 42.631423,33.928197 C 42.237136,33.619934 42.166211,33.06672 42.474467,32.672439 C 42.782709,32.278157 43.359873,32.187128 43.754154,32.495384 z M 40.908626,30.273851 C 41.302914,30.582101 41.373838,31.135329 41.065582,31.529609 C 40.757318,31.923896 40.180176,32.014921 39.785896,31.706665 C 39.391601,31.398408 39.344612,30.825088 39.652868,30.430807 C 39.961125,30.036513 40.514345,29.965595 40.908626,30.273851 z M 53.754116,46.0523 C 54.148409,46.360571 54.239427,46.937706 53.931171,47.331986 C 53.622893,47.726272 53.049594,47.77327 52.655314,47.465014 C 52.261041,47.156751 52.190102,46.603536 52.498358,46.209256 C 52.806614,45.814975 53.359835,45.744044 53.754116,46.0523 z M 38.063099,28.052319 C 38.457387,28.360568 38.528311,28.913796 38.220055,29.308077 C 37.911791,29.702364 37.334649,29.793388 36.940368,29.485132 C 36.546073,29.176875 36.499085,28.603555 36.807341,28.209275 C 37.115584,27.814979 37.668818,27.744063 38.063099,28.052319 z M 50.928688,43.854696 C 51.322981,44.162967 51.3939,44.716173 51.085644,45.110454 C 50.777373,45.504733 50.224166,45.575666 49.829886,45.26741 C 49.43559,44.959167 49.344574,44.382004 49.65283,43.987723 C 49.961086,43.593443 50.534407,43.54644 50.928688,43.854696 z M 48.107089,41.613064 C 48.501374,41.921341 48.548372,42.494641 48.240116,42.888921 C 47.931854,43.283194 47.378639,43.354133 46.984358,43.045877 C 46.590077,42.737621 46.499047,42.160471 46.807303,41.766191 C 47.115574,41.371897 47.712808,41.304808 48.107089,41.613064 z M 45.261561,39.391531 C 45.65584,39.699801 45.702845,40.273108 45.394589,40.667389 C 45.086339,41.061677 44.533111,41.132601 44.138831,40.824345 C 43.74455,40.516089 43.653519,39.938939 43.961775,39.544658 C 44.270046,39.150365 44.86728,39.083275 45.261561,39.391531 z M 42.416034,37.169999 C 42.810321,37.478262 42.857317,38.051576 42.549061,38.445856 C 42.240796,38.840157 41.687584,38.911068 41.293303,38.602812 C 40.89903,38.29455 40.807992,37.717406 41.116248,37.323126 C 41.424504,36.928845 42.021753,36.861743 42.416034,37.169999 z M 39.570506,34.948466 C 39.964785,35.256736 40.01179,35.830043 39.703534,36.224324 C 39.395292,36.618606 38.842056,36.689536 38.447776,36.38128 C 38.053496,36.07301 37.962464,35.495874 38.27072,35.101593 C 38.578962,34.707311 39.176225,34.64021 39.570506,34.948466 z M 36.724979,32.726934 C 37.119258,33.035204 37.190191,33.588411 36.881935,33.982692 C 36.573685,34.37698 35.996529,34.468003 35.602248,34.159747 C 35.207961,33.851484 35.116937,33.274341 35.425193,32.880061 C 35.733457,32.48576 36.330698,32.418678 36.724979,32.726934 z M 49.570468,48.505382 C 49.964756,48.813632 50.03568,49.36686 49.727424,49.76114 C 49.41916,50.155427 48.842018,50.246452 48.447738,49.938196 C 48.053456,49.629954 47.986355,49.03269 48.294611,48.63841 C 48.602881,48.24413 49.176187,48.197126 49.570468,48.505382 z M 46.724941,46.28385 C 47.119221,46.592106 47.190153,47.145327 46.881897,47.539608 C 46.573625,47.933901 45.996491,48.024919 45.60221,47.716663 C 45.207944,47.408408 45.140827,46.811158 45.449083,46.416877 C 45.757345,46.022604 46.33066,45.975594 46.724941,46.28385 z M 43.879413,44.062317 C 44.273694,44.370573 44.344625,44.923795 44.036369,45.318075 C 43.728098,45.712369 43.174892,45.783287 42.780611,45.475031 C 42.386345,45.166776 42.2953,44.589625 42.603556,44.195345 C 42.911818,43.801072 43.485132,43.754061 43.879413,44.062317 z M 41.033886,41.840785 C 41.428167,42.149027 41.499098,42.702262 41.190842,43.096543 C 40.882579,43.490816 40.329364,43.561755 39.935084,43.253499 C 39.540809,42.94525 39.449772,42.368093 39.758028,41.973812 C 40.066298,41.579533 40.639605,41.532529 41.033886,41.840785 z M 38.188358,39.619252 C 38.58264,39.927494 38.65357,40.48073 38.345314,40.87501 C 38.037044,41.26929 37.483837,41.340222 37.089556,41.031966 C 36.695274,40.723724 36.604245,40.14656 36.912501,39.75228 C 37.220771,39.358 37.794077,39.310996 38.188358,39.619252 z M 35.366759,37.37762 C 35.761033,37.685869 35.808043,38.259197 35.499787,38.653478 C 35.191509,39.047763 34.638309,39.11869 34.244029,38.810434 C 33.849762,38.502179 33.758717,37.925028 34.066973,37.530747 C 34.375229,37.136467 34.972478,37.069364 35.366759,37.37762 z M 32.521232,35.156088 C 32.915513,35.46433 32.962515,36.037665 32.654259,36.431945 C 32.345997,36.826218 31.792782,36.897157 31.398501,36.588901 C 31.00422,36.280645 30.91319,35.703495 31.221446,35.309215 C 31.529709,34.914928 32.126951,34.847832 32.521232,35.156088 z M 45.615573,51.133622 C 46.009854,51.441878 46.100885,52.019028 45.792629,52.413309 C 45.484364,52.80761 44.907223,52.89862 44.512942,52.590364 C 44.118663,52.282094 44.051559,51.684859 44.359815,51.290578 C 44.668065,50.89629 45.221292,50.825366 45.615573,51.133622 z M 42.790145,48.936018 C 43.184418,49.244281 43.255357,49.797496 42.947101,50.191776 C 42.638853,50.58605 42.061695,50.677088 41.667415,50.368832 C 41.273135,50.060562 41.206032,49.463326 41.514288,49.069046 C 41.822529,48.674764 42.395864,48.627762 42.790145,48.936018 z M 39.944618,46.714486 C 40.338897,47.022756 40.40983,47.575963 40.101574,47.970244 C 39.793324,48.364532 39.216168,48.455555 38.821887,48.147299 C 38.4276,47.839036 38.360504,47.241794 38.66876,46.847513 C 38.977025,46.453212 39.550337,46.40623 39.944618,46.714486 z M 37.09909,44.492953 C 37.493385,44.80121 37.564302,45.354431 37.256046,45.748711 C 36.947789,46.143006 36.37064,46.234023 35.97636,45.925767 C 35.582065,45.61751 35.514977,45.020261 35.823233,44.625981 C 36.13149,44.231686 36.704809,44.184697 37.09909,44.492953 z M 34.253563,42.271421 C 34.647842,42.579691 34.718775,43.132898 34.410519,43.527179 C 34.102277,43.921461 33.549041,43.992391 33.154761,43.684135 C 32.760481,43.375865 32.669449,42.798729 32.977705,42.404448 C 33.285947,42.010166 33.859282,41.963165 34.253563,42.271421 z M 31.408035,40.049888 C 31.802314,40.358158 31.873247,40.911366 31.564991,41.305646 C 31.256741,41.699934 30.703514,41.770858 30.309233,41.462602 C 29.914946,41.154339 29.823922,40.577196 30.132178,40.182916 C 30.440442,39.788615 31.013754,39.741632 31.408035,40.049888 z M 44.277453,55.808237 C 44.671739,56.116515 44.718737,56.689814 44.410481,57.084095 C 44.102226,57.478361 43.549003,57.549307 43.154723,57.241051 C 42.760442,56.932795 42.669411,56.355645 42.977667,55.961364 C 43.285915,55.56709 43.883172,55.499981 44.277453,55.808237 z M 28.586436,37.808256 C 28.980724,38.116506 29.02772,38.689833 28.719464,39.084114 C 28.411206,39.478408 27.857986,39.549326 27.463706,39.24107 C 27.069411,38.932813 26.978394,38.355664 27.28665,37.961383 C 27.594907,37.567089 28.192155,37.5 28.586436,37.808256 z M 41.431926,53.586705 C 41.826211,53.894982 41.873209,54.468282 41.564953,54.862562 C 41.256698,55.256829 40.703476,55.327774 40.309195,55.019518 C 39.914922,54.711256 39.823884,54.134112 40.13214,53.739832 C 40.440388,53.345558 41.037645,53.278449 41.431926,53.586705 z M 38.586398,51.365172 C 38.980693,51.673429 39.027682,52.246749 38.719426,52.64103 C 38.411168,53.035324 37.857948,53.106242 37.463668,52.797986 C 37.069379,52.489736 36.978356,51.91258 37.286612,51.518299 C 37.594876,51.124012 38.192117,51.056916 38.586398,51.365172 z M 35.740871,49.14364 C 36.13515,49.45191 36.206083,50.005117 35.897827,50.399398 C 35.589577,50.793686 35.012421,50.884709 34.61814,50.576453 C 34.223859,50.268197 34.156757,49.670948 34.465013,49.276667 C 34.773261,48.882393 35.34659,48.835384 35.740871,49.14364 z M 32.895343,46.922107 C 33.289629,47.230385 33.360555,47.783585 33.052299,48.177865 C 32.744044,48.572132 32.166893,48.663177 31.772613,48.354921 C 31.378332,48.046665 31.31123,47.449415 31.619486,47.055135 C 31.927734,46.660861 32.501062,46.613851 32.895343,46.922107 z M 30.049816,44.700575 C 30.444124,45.008833 30.515028,45.562052 30.206772,45.956333 C 29.898509,46.350606 29.321366,46.441644 28.927085,46.133388 C 28.532804,45.825132 28.465702,45.227883 28.773958,44.833602 C 29.082222,44.439315 29.655535,44.392319 30.049816,44.700575 z M 27.204288,42.479042 C 27.598581,42.787314 27.6695,43.34052 27.361244,43.7348 C 27.052966,44.129086 26.475838,44.220112 26.081558,43.911856 C 25.687285,43.603593 25.620175,43.00635 25.928431,42.61207 C 26.236687,42.217789 26.810007,42.170786 27.204288,42.479042 z M 40.224935,58.028738 C 40.619222,58.337002 40.710247,58.914144 40.401991,59.308425 C 40.093749,59.702707 39.496485,59.769808 39.102205,59.461552 C 38.707925,59.153282 38.660921,58.579975 38.969177,58.185694 C 39.277419,57.791412 39.830654,57.720482 40.224935,58.028738 z M 24.358761,40.25751 C 24.753054,40.565781 24.823973,41.118987 24.515717,41.513268 C 24.207439,41.907553 23.654239,41.97848 23.259959,41.670224 C 22.865686,41.361961 22.774647,40.784818 23.082903,40.390537 C 23.391159,39.996257 23.96448,39.949254 24.358761,40.25751 z M 37.379408,55.807206 C 37.773702,56.115463 37.864719,56.692612 37.556463,57.086892 C 37.248206,57.481187 36.674886,57.528176 36.280606,57.21992 C 35.886311,56.911663 35.815394,56.358442 36.12365,55.964162 C 36.431907,55.569867 36.985127,55.49895 37.379408,55.807206 z M 34.53388,53.585673 C 34.928161,53.893929 35.019192,54.471079 34.710936,54.86536 C 34.402671,55.259661 33.849458,55.330572 33.455178,55.022316 C 33.060898,54.714046 32.969866,54.13691 33.278122,53.742629 C 33.586372,53.348341 34.139599,53.277417 34.53388,53.585673 z M 31.732381,51.36797 C 32.126653,51.676232 32.173664,52.249547 31.865408,52.643827 C 31.55716,53.038101 31.003931,53.109039 30.60965,52.800783 C 30.215371,52.492513 30.124339,51.915377 30.432595,51.521097 C 30.740836,51.126815 31.3381,51.059714 31.732381,51.36797 z M 28.886853,49.146437 C 29.281126,49.4547 29.328137,50.028014 29.019881,50.422295 C 28.711625,50.816575 28.158403,50.887507 27.764123,50.579251 C 27.369836,50.270987 27.278811,49.693845 27.587067,49.299564 C 27.895325,48.905255 28.492572,48.838181 28.886853,49.146437 z M 26.041326,46.924905 C 26.435614,47.233154 26.482609,47.806482 26.174353,48.200762 C 25.866089,48.595049 25.312876,48.665974 24.918595,48.357718 C 24.524294,48.049453 24.433284,47.472312 24.74154,47.078032 C 25.04981,46.683752 25.647045,46.616649 26.041326,46.924905 z M 36.262393,59.724732 C 36.656667,60.032981 36.723776,60.630238 36.41552,61.024518 C 36.10725,61.418798 35.533943,61.465802 35.139663,61.157546 C 34.745367,60.849303 34.674451,60.296068 34.982707,59.901788 C 35.290963,59.507507 35.868112,59.416476 36.262393,59.724732 z M 23.195798,44.703372 C 23.590071,45.011635 23.637082,45.584949 23.328826,45.97923 C 23.020577,46.373504 22.467348,46.444442 22.073068,46.136186 C 21.678782,45.827908 21.587756,45.25078 21.896012,44.856499 C 22.204267,44.462233 22.801517,44.395116 23.195798,44.703372 z M 33.416866,57.5032 C 33.81114,57.811448 33.878249,58.408705 33.569993,58.802986 C 33.261744,59.19726 32.688416,59.244269 32.294135,58.936013 C 31.899869,58.627758 31.828923,58.074536 32.137179,57.680255 C 32.445434,57.285989 33.022585,57.194944 33.416866,57.5032 z M 30.571338,55.281667 C 30.965605,55.589922 31.032721,56.187173 30.724465,56.581453 C 30.416203,56.975726 29.842888,57.022737 29.448608,56.714481 C 29.054333,56.406232 28.983396,55.853003 29.291652,55.458723 C 29.599929,55.064437 30.177057,54.973411 30.571338,55.281667 z M 27.725811,53.060135 C 28.120092,53.368377 28.187194,53.96564 27.878938,54.359921 C 27.570667,54.7542 26.997361,54.801204 26.60308,54.492948 C 26.208798,54.184706 26.137868,53.631471 26.446124,53.23719 C 26.754394,52.842911 27.33153,52.751879 27.725811,53.060135 z M 24.880283,50.838602 C 25.27455,51.146857 25.365595,51.724008 25.057339,52.118289 C 24.749084,52.512555 24.151833,52.579672 23.757553,52.271416 C 23.36328,51.963153 23.316269,51.389839 23.624525,50.995558 C 23.932773,50.601284 24.486002,50.530346 24.880283,50.838602 z M 35.413376,63.621205 C 35.807664,63.929454 35.878588,64.482682 35.570332,64.876963 C 35.262068,65.27125 34.708854,65.342175 34.314574,65.033919 C 33.920292,64.725677 33.849362,64.172441 34.157618,63.778161 C 34.465888,63.383881 35.019095,63.312949 35.413376,63.621205 z M 22.034756,48.61707 C 22.429022,48.925324 22.520067,49.502476 22.211811,49.896756 C 21.903549,50.291029 21.306306,50.358139 20.912025,50.049883 C 20.517744,49.741627 20.470742,49.168306 20.778998,48.774026 C 21.087269,48.379732 21.640475,48.308814 22.034756,48.61707 z M 32.591777,61.379573 C 32.986051,61.687821 33.03306,62.26115 32.724804,62.65543 C 32.41654,63.049717 31.863327,63.120642 31.469046,62.812386 C 31.074757,62.504151 31.003834,61.950909 31.31209,61.556628 C 31.620352,61.162355 32.197496,61.071317 32.591777,61.379573 z M 19.189228,46.395537 C 19.583502,46.703786 19.67454,47.280943 19.366284,47.675224 C 19.058006,48.069509 18.460778,48.136607 18.066498,47.828351 C 17.672225,47.520088 17.625214,46.946774 17.93347,46.552493 C 18.241726,46.158213 18.794947,46.087281 19.189228,46.395537 z M 29.746249,59.15804 C 30.140523,59.466289 30.187533,60.039617 29.879277,60.433898 C 29.571022,60.828164 29.017799,60.89911 28.623519,60.590854 C 28.229252,60.282599 28.158307,59.729376 28.466563,59.335096 C 28.774825,58.940823 29.351968,58.849784 29.746249,59.15804 z M 26.900722,56.936508 C 27.295003,57.24475 27.342005,57.818085 27.033749,58.212365 C 26.725479,58.606645 26.172272,58.677577 25.777991,58.369321 C 25.383709,58.061079 25.312779,57.507844 25.621035,57.113563 C 25.929305,56.719284 26.506441,56.628252 26.900722,56.936508 z M 24.055194,54.714975 C 24.449468,55.023224 24.516577,55.620481 24.208321,56.014761 C 23.900043,56.409047 23.326744,56.456045 22.932464,56.147789 C 22.538191,55.839526 22.467252,55.286311 22.775508,54.892031 C 23.083764,54.49775 23.660913,54.406719 24.055194,54.714975 z M 21.209667,52.493443 C 21.603947,52.801699 21.694978,53.378849 21.386722,53.773129 C 21.078474,54.167403 20.481217,54.234512 20.086936,53.926256 C 19.69267,53.618001 19.621724,53.064779 19.92998,52.670498 C 20.238235,52.276232 20.815386,52.185187 21.209667,52.493443 z M 18.364139,50.27191 C 18.758412,50.580173 18.849451,51.157316 18.541195,51.551597 C 18.232939,51.945877 17.635689,52.01298 17.241409,51.704724 C 16.847134,51.396475 16.800125,50.823147 17.108381,50.428866 C 17.416659,50.03458 17.969858,49.963654 18.364139,50.27191 z M 31.229728,66.074287 C 31.624016,66.382537 31.69494,66.935765 31.386684,67.330045 C 31.07842,67.724332 30.525207,67.795257 30.130926,67.487001 C 29.736631,67.178744 29.645615,66.601595 29.953871,66.207315 C 30.262128,65.81302 30.835447,65.766031 31.229728,66.074287 z M 15.518612,48.050378 C 15.912893,48.35862 16.003923,48.935784 15.695667,49.330064 C 15.387403,49.724351 14.790162,49.791447 14.395881,49.483191 C 14.001599,49.174949 13.954598,48.601614 14.262854,48.207334 C 14.571124,47.813054 15.124331,47.742122 15.518612,48.050378 z M 28.384201,63.852755 C 28.778489,64.161004 28.849413,64.714232 28.541157,65.108513 C 28.232893,65.5028 27.679679,65.573725 27.285399,65.265469 C 26.891104,64.957212 26.800087,64.380063 27.108343,63.985782 C 27.416594,63.59148 27.98992,63.544499 28.384201,63.852755 z M 25.562602,61.611123 C 25.956874,61.919385 26.003885,62.4927 25.695629,62.88698 C 25.387381,63.281254 24.834152,63.352192 24.439871,63.043936 C 24.045578,62.735665 23.95456,62.15853 24.262816,61.76425 C 24.57107,61.369983 25.168321,61.302867 25.562602,61.611123 z M 22.717074,59.38959 C 23.111376,59.697841 23.158358,60.271167 22.850102,60.665448 C 22.541852,61.059736 21.988624,61.13066 21.594344,60.822404 C 21.200057,60.51414 21.109032,59.936998 21.417288,59.542717 C 21.725545,59.148423 22.322793,59.081334 22.717074,59.38959 z M 19.871547,57.168058 C 20.265841,57.476315 20.31283,58.049635 20.004574,58.443915 C 19.696317,58.83821 19.143097,58.909127 18.748816,58.600871 C 18.354521,58.292614 18.263505,57.715465 18.571761,57.321185 C 18.880018,56.92689 19.477266,56.859802 19.871547,57.168058 z M 17.026019,54.946525 C 17.420292,55.254788 17.467303,55.828102 17.159047,56.222383 C 16.850797,56.616671 16.297569,56.687595 15.903289,56.379339 C 15.509002,56.071075 15.438077,55.517861 15.746333,55.123581 C 16.054574,54.729299 16.631738,54.638269 17.026019,54.946525 z M 14.180492,52.724993 C 14.57478,53.033242 14.645704,53.58647 14.337448,53.980751 C 14.029192,54.375031 13.452042,54.466062 13.057761,54.157806 C 12.663474,53.849543 12.592549,53.296329 12.900805,52.902048 C 13.209062,52.507754 13.786211,52.416737 14.180492,52.724993 z M 27.025981,68.503441 C 27.42026,68.811711 27.491193,69.364919 27.182937,69.759199 C 26.874687,70.153487 26.297531,70.244511 25.903251,69.936255 C 25.50897,69.627999 25.441868,69.030749 25.750124,68.636469 C 26.058372,68.242195 26.6317,68.195185 27.025981,68.503441 z M 11.334964,50.50346 C 11.729252,50.81171 11.800176,51.364938 11.49192,51.759218 C 11.183656,52.153505 10.606514,52.24453 10.212234,51.936274 C 9.8179389,51.628017 9.7709501,51.054697 10.079206,50.660416 C 10.387457,50.266114 10.940683,50.195204 11.334964,50.50346 z M 24.180454,66.281909 C 24.574741,66.590172 24.645666,67.143386 24.33741,67.537667 C 24.029152,67.931961 23.452004,68.022978 23.057723,67.714722 C 22.663435,67.406473 22.59634,66.809217 22.904596,66.414936 C 23.212852,66.020656 23.786173,65.973653 24.180454,66.281909 z M 21.334926,64.060376 C 21.729213,64.36864 21.800138,64.921854 21.491882,65.316134 C 21.18364,65.710416 20.630405,65.781346 20.236124,65.47309 C 19.841845,65.16482 19.750813,64.587684 20.059069,64.193404 C 20.367318,63.799115 20.940645,63.75212 21.334926,64.060376 z M 18.489399,61.838844 C 18.883678,62.147114 18.954611,62.700321 18.646355,63.094602 C 18.338105,63.48889 17.784877,63.559814 17.390597,63.251558 C 16.99631,62.943294 16.925385,62.39008 17.233641,61.9958 C 17.541882,61.601518 18.095118,61.530588 18.489399,61.838844 z M 15.643871,59.617311 C 16.038164,59.925583 16.109083,60.478789 15.800827,60.873069 C 15.492557,61.267349 14.93935,61.338281 14.545069,61.030025 C 14.150781,60.721776 14.079857,60.168548 14.388113,59.774267 C 14.696369,59.379987 15.24959,59.309055 15.643871,59.617311 z M 12.822272,57.375679 C 13.216559,57.683943 13.263556,58.257256 12.9553,58.651537 C 12.647049,59.045839 12.093822,59.116749 11.699542,58.808493 C 11.305253,58.500243 11.23433,57.947015 11.542586,57.552735 C 11.850842,57.158454 12.427991,57.067423 12.822272,57.375679 z M 9.9767445,55.154147 C 10.371024,55.462417 10.418028,56.035724 10.109772,56.430004 C 9.8015225,56.824292 9.2482946,56.895216 8.854014,56.58696 C 8.4597335,56.278704 8.3888021,55.725483 8.697058,55.331202 C 9.0053293,54.936909 9.582464,54.845891 9.9767445,55.154147 z M 23.091186,71.15561 C 23.485474,71.463859 23.556398,72.017087 23.248142,72.411368 C 22.939878,72.805655 22.362736,72.896679 21.968455,72.588423 C 21.574173,72.280181 21.507072,71.682918 21.815328,71.288637 C 22.123598,70.894358 22.696905,70.847354 23.091186,71.15561 z M 20.245658,68.934077 C 20.639939,69.242333 20.71087,69.795555 20.402614,70.189835 C 20.094343,70.584129 19.517208,70.675147 19.122928,70.366891 C 18.728661,70.058636 18.661545,69.461385 18.969801,69.067105 C 19.278063,68.672832 19.851377,68.625821 20.245658,68.934077 z M 17.400131,66.712545 C 17.794419,67.020794 17.865343,67.574022 17.557087,67.968303 C 17.248831,68.362583 16.671681,68.453614 16.2774,68.145358 C 15.883126,67.83711 15.816017,67.239853 16.124273,66.845572 C 16.432543,66.451293 17.00585,66.404289 17.400131,66.712545 z M 14.554603,64.491012 C 14.948885,64.799254 15.019815,65.35249 14.711559,65.74677 C 14.403289,66.14105 13.826153,66.232082 13.431873,65.923826 C 13.037591,65.615584 12.97049,65.01832 13.278746,64.62404 C 13.587016,64.22976 14.160322,64.182756 14.554603,64.491012 z M 11.709076,62.26948 C 12.10335,62.577728 12.174288,63.130957 11.866032,63.525238 C 11.557754,63.919523 11.004554,63.99045 10.610274,63.682194 C 10.216007,63.373939 10.145062,62.820716 10.453318,62.426436 C 10.76158,62.032163 11.314795,61.961224 11.709076,62.26948 z M 8.863548,60.047947 C 9.2578145,60.356202 9.32876,60.909425 9.020504,61.303705 C 8.7122416,61.697978 8.1590266,61.768917 7.764746,61.460661 C 7.3704719,61.152413 7.2995341,60.599184 7.60779,60.204903 C 7.9160383,59.810629 8.4692675,59.739691 8.863548,60.047947 z M 6.041949,57.806315 C 6.4362219,58.114578 6.4832325,58.687892 6.1749765,59.082173 C 5.8667282,59.476447 5.3134991,59.547385 4.9192185,59.239129 C 4.5249444,58.93088 4.4540066,58.377651 4.7622625,57.983371 C 5.0705173,57.589104 5.6476685,57.498059 6.041949,57.806315 z M 18.887439,73.584764 C 19.281733,73.893021 19.328722,74.466341 19.020466,74.860621 C 18.712209,75.254916 18.158989,75.325833 17.764708,75.017577 C 17.370413,74.70932 17.279397,74.132171 17.587653,73.737891 C 17.89591,73.343596 18.493158,73.276508 18.887439,73.584764 z M 16.041911,71.363231 C 16.436206,71.671488 16.483195,72.244808 16.174939,72.639089 C 15.866689,73.033377 15.313461,73.104301 14.919181,72.796045 C 14.524886,72.487788 14.433869,71.910639 14.742125,71.516358 C 15.050382,71.122064 15.64763,71.054975 16.041911,71.363231 z M 13.196384,69.141699 C 13.590678,69.449956 13.661596,70.003176 13.35334,70.397457 C 13.045082,70.791751 12.467934,70.882768 12.073653,70.574512 C 11.679358,70.266255 11.61227,69.669007 11.920526,69.274726 C 12.228776,68.880438 12.802103,68.833443 13.196384,69.141699 z M 10.350856,66.920166 C 10.745129,67.228429 10.816068,67.781644 10.507812,68.175924 C 10.199562,68.570212 9.6224061,68.661236 9.2281255,68.35298 C 8.8338385,68.044716 8.7868421,67.471403 9.095098,67.077122 C 9.4033399,66.68284 9.9565755,66.61191 10.350856,66.920166 z M 7.5053285,64.698634 C 7.8996014,65.006896 7.9705405,65.560111 7.6622845,65.954392 C 7.3540286,66.348672 6.7768786,66.439703 6.382598,66.131447 C 5.988311,65.823184 5.9413146,65.24987 6.2495705,64.85559 C 6.5578124,64.461308 7.111048,64.390378 7.5053285,64.698634 z M 4.659801,62.477101 C 5.0540893,62.785351 5.125013,63.338579 4.816757,63.732859 C 4.5085011,64.12714 3.9313511,64.218171 3.5370705,63.909915 C 3.1427759,63.601658 3.0957871,63.028338 3.404043,62.634057 C 3.7122938,62.239755 4.2655205,62.168845 4.659801,62.477101 z M 14.85502,75.829193 C 15.249302,76.137435 15.320232,76.690671 15.011976,77.084951 C 14.703714,77.479224 14.150499,77.550163 13.756218,77.241907 C 13.361944,76.933659 13.270907,76.356501 13.579163,75.962221 C 13.887426,75.567934 14.460739,75.520937 14.85502,75.829193 z M 12.009493,73.607661 C 12.403774,73.915903 12.474705,74.469138 12.166449,74.863419 C 11.858178,75.257698 11.304971,75.328631 10.910691,75.020375 C 10.516402,74.712125 10.425379,74.134969 10.733635,73.740688 C 11.041899,73.346401 11.615212,73.299405 12.009493,73.607661 z M 9.163965,71.386128 C 9.5582392,71.694377 9.629177,72.247606 9.320921,72.641886 C 9.0126433,73.036172 8.4594436,73.107098 8.065163,72.798842 C 7.6708901,72.49058 7.5798516,71.913436 7.8881075,71.519156 C 8.1963635,71.124875 8.7696845,71.077872 9.163965,71.386128 z M 6.342366,69.144496 C 6.7366671,69.452761 6.7836495,70.026073 6.4753935,70.420354 C 6.1671311,70.814627 5.6139161,70.885566 5.2196355,70.57731 C 4.825355,70.269054 4.7343241,69.691904 5.04258,69.297623 C 5.3508437,68.903336 5.9480855,68.83624 6.342366,69.144496 z"
         style="fill:#db9275;fill-opacity:1;fill-rule:nonzero;stroke:#925e4b;stroke-width:0.20000006;stroke-linecap:round;stroke-linejoin:round;stroke-miterlimit:4;stroke-opacity:1" />
      <path
         id="rect2963"
         d="M 58.299091,-26.092186 L 59.438843,-26.092186 C 64.615371,-26.092186 68.782757,-24.965866 68.782757,-23.566804 L 68.782757,3.7054305 C 68.782757,5.1044919 64.615371,6.2308121 59.438843,6.2308121 L 58.299091,6.2308121 C 53.122563,6.2308121 48.955177,5.1044919 48.955177,3.7054305 L 48.955177,-23.566804 C 48.955177,-24.965866 53.122563,-26.092186 58.299091,-26.092186 z"
         style="fill:#c47f67;fill-opacity:1;fill-rule:nonzero;stroke:none;stroke-opacity:1"
         transform="matrix(0.6431838,0.7657118,-0.7657118,0.6431838,0,0)" />
      <path
         id="rect25394"
         d="M 58.445301,29.043698 C 58.05102,28.735442 57.497805,28.806381 57.189543,29.200654 C 56.881287,29.594934 56.952232,30.148157 57.346499,30.456412 C 57.74078,30.764668 58.294009,30.69373 58.602257,30.299456 C 58.910513,29.905175 58.839601,29.351977 58.445301,29.043698 z M 60.058999,31.402087 C 60.051983,31.410448 60.041851,31.413513 60.03507,31.422186 C 59.726814,31.816467 59.797752,32.369696 60.192026,32.677944 C 60.434109,32.867214 60.712273,32.874605 60.980701,32.790894 C 60.728084,32.350767 60.372109,31.872267 60.058999,31.402087 z M 55.623702,26.802066 C 55.229421,26.49381 54.652286,26.584842 54.344015,26.979121 C 54.035759,27.373402 54.106697,27.926631 54.500971,28.234879 C 54.895252,28.543135 55.448473,28.472204 55.756729,28.077923 C 56.064985,27.683643 56.018009,27.110338 55.623702,26.802066 z M 52.778174,24.580533 C 52.383894,24.272277 51.806758,24.363309 51.498488,24.757589 C 51.190232,25.151869 51.26117,25.705098 51.655444,26.013347 C 52.049725,26.321603 52.623045,26.2746 52.931301,25.880319 C 53.239557,25.486039 53.17249,24.888799 52.778174,24.580533 z M 49.932647,22.359001 C 49.843878,22.289594 49.73044,22.318184 49.62828,22.28817 C 49.618172,22.295772 49.593961,22.276185 49.584252,22.284341 L 48.483541,23.208918 C 48.518146,23.424093 48.62146,23.644464 48.809916,23.791814 C 49.204197,24.10007 49.777553,24.053077 50.085774,23.658787 C 50.39403,23.264506 50.326948,22.667266 49.932647,22.359001 z M 60.127866,35.711093 C 59.733585,35.402837 59.156451,35.493855 58.848179,35.888148 C 58.539923,36.282429 58.610855,36.83565 59.005135,37.143906 C 59.399416,37.452162 59.95265,37.381246 60.260893,36.98695 C 60.569149,36.59267 60.522168,36.019343 60.127866,35.711093 z M 57.282338,33.48956 C 56.888058,33.181304 56.334836,33.252236 56.02658,33.646516 C 55.718324,34.040797 55.765335,34.614111 56.159608,34.922374 C 56.553889,35.23063 57.131053,35.1396 57.439294,34.745318 C 57.74755,34.351038 57.676625,33.797824 57.282338,33.48956 z M 54.436811,31.268028 C 54.04253,30.959772 53.489318,31.030683 53.181053,31.424984 C 52.872797,31.819264 52.919808,32.392579 53.31408,32.700841 C 53.708361,33.009097 54.285525,32.918068 54.593767,32.523786 C 54.902023,32.129505 54.831113,31.576278 54.436811,31.268028 z M 51.591283,29.046495 C 51.197003,28.738239 50.643797,28.809158 50.335525,29.203451 C 50.027269,29.597732 50.074272,30.171053 50.468553,30.479309 C 50.862834,30.787565 51.439996,30.696549 51.748239,30.302253 C 52.056495,29.907973 51.985592,29.354754 51.591283,29.046495 z M 48.745756,26.824963 C 48.351475,26.516707 47.798262,26.587632 47.489998,26.981919 C 47.181742,27.376199 47.22876,27.949507 47.623025,28.257776 C 48.017306,28.566032 48.594461,28.475023 48.902712,28.080721 C 49.210968,27.68644 49.140057,27.133228 48.745756,26.824963 z M 58.986923,39.648719 C 58.592642,39.340463 58.01935,39.387468 57.711065,39.781746 C 57.402809,40.176027 57.469932,40.773285 57.864192,41.081532 C 57.896186,41.106545 57.938191,41.093319 57.972348,41.113119 L 59.21663,40.067945 C 59.160899,39.913442 59.12799,39.758993 58.986923,39.648719 z M 46.186405,25.13847 L 45.061765,26.083146 C 45.415535,26.211159 45.810196,26.175129 46.057184,25.859188 C 46.225476,25.643935 46.235074,25.382749 46.186405,25.13847 z M 56.141395,37.427186 C 55.747115,37.11893 55.17383,37.165929 54.865538,37.560214 C 54.557282,37.954494 54.624405,38.551753 55.018665,38.86 C 55.412946,39.168256 55.990103,39.077218 56.298351,38.682944 C 56.606607,38.288664 56.535676,37.735442 56.141395,37.427186 z M 53.295868,35.205654 C 52.901587,34.897398 52.328288,34.944395 52.02001,35.338681 C 51.711754,35.732962 51.802798,36.310127 52.197066,36.618368 C 52.591347,36.926624 53.144568,36.855692 53.452824,36.461412 C 53.76108,36.067131 53.690164,35.513897 53.295868,35.205654 z M 50.45034,32.984121 C 50.05606,32.675865 49.482753,32.722869 49.174483,33.117149 C 48.866227,33.511429 48.95728,34.088574 49.351538,34.396835 C 49.745819,34.705091 50.299033,34.634166 50.607296,34.239879 C 50.915552,33.845599 50.844629,33.292371 50.45034,32.984121 z M 47.604813,30.762589 C 47.210532,30.454333 46.637218,30.501343 46.328955,30.895616 C 46.020699,31.289897 46.111744,31.867048 46.506011,32.175303 C 46.900292,32.483559 47.453528,32.412614 47.761769,32.018347 C 48.070025,31.624066 47.999094,31.070845 47.604813,30.762589 z M 44.783214,28.520957 C 44.388933,28.212701 43.791712,28.279806 43.483428,28.674084 C 43.175172,29.068364 43.266216,29.64553 43.660483,29.95377 C 44.054764,30.262026 44.607992,30.191102 44.916241,29.796814 C 45.224497,29.402534 45.177516,28.829207 44.783214,28.520957 z M 55.180393,41.3361 C 54.786113,41.027844 54.188871,41.09494 53.880607,41.489227 C 53.572351,41.883508 53.663398,42.460645 54.057663,42.768914 C 54.451944,43.07717 55.005193,43.006241 55.313421,42.611958 C 55.621677,42.217677 55.574695,41.644365 55.180393,41.3361 z M 52.334866,39.114568 C 51.940585,38.806312 51.343336,38.873414 51.03508,39.267695 C 50.726824,39.661975 50.817863,40.239119 51.212135,40.547381 C 51.606416,40.855637 52.159658,40.784715 52.467893,40.390425 C 52.776149,39.996145 52.729159,39.422839 52.334866,39.114568 z M 49.489338,36.893035 C 49.095058,36.584779 48.497824,36.651869 48.189552,37.046162 C 47.881296,37.440443 47.972335,38.017586 48.366608,38.325849 C 48.760889,38.634105 49.31413,38.563182 49.622366,38.168893 C 49.930622,37.774612 49.883647,37.201294 49.489338,36.893035 z M 46.643811,34.671503 C 46.24953,34.363247 45.652296,34.430336 45.344025,34.82463 C 45.035769,35.21891 45.1268,35.79606 45.52108,36.104316 C 45.915361,36.412572 46.468595,36.341656 46.776838,35.94736 C 47.085094,35.55308 47.03812,34.979761 46.643811,34.671503 z M 43.798283,32.44997 C 43.404003,32.141714 42.826853,32.232745 42.518597,32.627026 C 42.210341,33.021306 42.28128,33.574521 42.675553,33.882784 C 43.069834,34.19104 43.647004,34.100018 43.955239,33.705728 C 44.263495,33.311448 44.19257,32.758234 43.798283,32.44997 z M 40.952756,30.228438 C 40.768253,30.084192 40.560579,30.026654 40.347851,30.042748 L 39.606067,30.665832 C 39.480074,31.021275 39.518499,31.417698 39.830025,31.661251 C 40.224306,31.969507 40.801462,31.878484 41.109712,31.484196 C 41.417968,31.089915 41.347058,30.536688 40.952756,30.228438 z M 50.972817,43.809282 C 50.578537,43.501026 50.00523,43.54803 49.69696,43.94231 C 49.388704,44.33659 49.479734,44.913754 49.874015,45.221996 C 50.268296,45.530252 50.821517,45.459321 51.129773,45.06504 C 51.438029,44.67076 51.367125,44.117555 50.972817,43.809282 z M 48.151218,41.56765 C 47.756938,41.259394 47.159718,41.326485 46.851432,41.720777 C 46.543176,42.115058 46.634221,42.692209 47.028488,43.000464 C 47.422769,43.30872 47.975998,43.237782 48.284246,42.843508 C 48.592502,42.449227 48.545518,41.875929 48.151218,41.56765 z M 45.305691,39.346118 C 44.91141,39.037862 44.31419,39.104953 44.005905,39.499245 C 43.697649,39.893525 43.788694,40.470676 44.18296,40.778931 C 44.577241,41.087187 45.130483,41.016265 45.438718,40.621975 C 45.746974,40.227695 45.699984,39.654389 45.305691,39.346118 z M 42.460163,37.124585 C 42.065883,36.816329 41.468648,36.883433 41.160377,37.277712 C 40.852121,37.671993 40.943174,38.249138 41.337433,38.557399 C 41.731714,38.865655 42.28494,38.794745 42.593191,38.400443 C 42.901447,38.006162 42.854465,37.43285 42.460163,37.124585 z M 39.614636,34.903053 C 39.220355,34.594797 38.623106,34.661899 38.31485,35.05618 C 38.006594,35.45046 38.09764,36.027597 38.491905,36.335866 C 38.886186,36.644122 39.439436,36.573193 39.747663,36.17891 C 40.055919,35.78463 40.008929,35.211324 39.614636,34.903053 z M 36.902147,32.937076 L 35.610008,34.022449 C 35.634603,34.046506 35.618785,34.092756 35.646378,34.114334 C 36.040659,34.42259 36.617829,34.331568 36.926064,33.937278 C 37.167884,33.627979 37.100078,33.247015 36.902147,32.937076 z M 49.334159,48.369038 C 48.978716,48.243045 48.582314,48.281479 48.33874,48.592996 C 48.171048,48.807486 48.138871,49.078391 48.185591,49.333814 L 49.334159,48.369038 z M 46.76907,46.238436 C 46.37479,45.93018 45.801489,45.977192 45.493213,46.371464 C 45.184957,46.765744 45.252088,47.362996 45.64634,47.67125 C 46.040621,47.979506 46.617769,47.888489 46.926026,47.494194 C 47.234282,47.099914 47.163365,46.546693 46.76907,46.238436 z M 43.923543,44.016904 C 43.529262,43.708648 42.955962,43.75566 42.647685,44.149931 C 42.339429,44.544212 42.430489,45.121364 42.824741,45.429618 C 43.219022,45.737874 43.772242,45.666956 44.080499,45.272662 C 44.388755,44.878381 44.317838,44.325161 43.923543,44.016904 z M 41.078015,41.795371 C 40.683735,41.487115 40.110442,41.534121 39.802158,41.928399 C 39.493902,42.322679 39.584953,42.899838 39.979213,43.208085 C 40.373494,43.516341 40.926723,43.445403 41.234971,43.051129 C 41.543227,42.656849 41.472311,42.103614 41.078015,41.795371 z M 38.232488,39.573839 C 37.838207,39.265583 37.264915,39.312588 36.95663,39.706866 C 36.648374,40.101147 36.739418,40.678312 37.133686,40.986553 C 37.527967,41.294809 38.081188,41.223877 38.389444,40.829597 C 38.6977,40.435316 38.626784,39.882082 38.232488,39.573839 z M 35.410889,37.332207 C 35.016608,37.023951 34.419373,37.091054 34.111103,37.485334 C 33.802847,37.879614 33.893906,38.456767 34.288158,38.76502 C 34.682439,39.073276 35.235653,39.002351 35.543916,38.608064 C 35.852172,38.213784 35.805177,37.640456 35.410889,37.332207 z M 45.659703,51.088209 C 45.265422,50.779953 44.712209,50.850878 44.403945,51.245165 C 44.124055,51.603173 44.197641,52.104733 44.500602,52.429137 L 45.792741,51.343764 C 45.738098,51.261391 45.740929,51.151714 45.659703,51.088209 z M 42.834275,48.890605 C 42.439994,48.582349 41.866673,48.629352 41.558417,49.023632 C 41.250161,49.417913 41.317279,50.015149 41.711544,50.323418 C 42.105825,50.631674 42.682997,50.540638 42.991231,50.146363 C 43.299487,49.752082 43.228562,49.198868 42.834275,48.890605 z M 39.988747,46.669072 C 39.594467,46.360816 39.021169,46.4078 38.71289,46.8021 C 38.404634,47.19638 38.471744,47.793623 38.866017,48.101886 C 39.260298,48.410142 39.837468,48.31912 40.145703,47.92483 C 40.453959,47.53055 40.383041,46.977344 39.988747,46.669072 z M 37.14322,44.44754 C 36.748939,44.139284 36.175634,44.186274 35.867362,44.580567 C 35.559106,44.974848 35.626209,45.572097 36.020489,45.880353 C 36.41477,46.188609 36.991933,46.097594 37.300176,45.703298 C 37.608432,45.309017 37.537529,44.755798 37.14322,44.44754 z M 34.297692,42.226007 C 33.903412,41.917751 33.330091,41.964754 33.021835,42.359035 C 32.713579,42.753315 32.804625,43.330452 33.19889,43.638721 C 33.593171,43.946977 34.146421,43.876048 34.454648,43.481765 C 34.762904,43.087485 34.691986,42.534279 34.297692,42.226007 z M 31.452165,40.004475 C 31.057884,39.696219 30.484586,39.743202 30.176307,40.137502 C 29.868051,40.531783 29.95909,41.108926 30.353363,41.417189 C 30.747644,41.725445 31.300885,41.654522 31.609121,41.260233 C 31.917377,40.865952 31.846458,40.312746 31.452165,40.004475 z M 41.476055,53.541291 C 41.081775,53.233035 40.484532,53.300145 40.176269,53.694418 C 39.868013,54.088699 39.959066,54.665844 40.353325,54.974105 C 40.43168,55.035359 40.525929,55.009358 40.613664,55.041107 C 40.868382,55.068362 41.11148,55.105247 41.281742,55.010486 C 41.393702,54.952212 41.525244,54.924387 41.609083,54.817149 C 41.917339,54.422868 41.870355,53.84957 41.476055,53.541291 z M 38.630528,51.319759 C 38.236247,51.011503 37.63902,51.0786 37.330742,51.472886 C 37.022486,51.867166 37.113523,52.444324 37.507797,52.752572 C 37.902078,53.060828 38.455312,52.989912 38.763555,52.595616 C 39.071811,52.201336 39.024837,51.628017 38.630528,51.319759 z M 35.785,49.098226 C 35.39072,48.78997 34.817405,48.836981 34.509143,49.231254 C 34.200887,49.625534 34.268003,50.222785 34.66227,50.53104 C 35.056551,50.839296 35.633721,50.748274 35.941956,50.353984 C 36.250212,49.959704 36.179294,49.406498 35.785,49.098226 z M 32.939473,46.876694 C 32.553865,46.575218 32.000217,46.618978 31.687544,46.989622 C 32.05144,47.48444 32.212746,47.89803 32.629346,48.402358 C 32.802474,48.346053 32.977451,48.284643 33.096429,48.132452 C 33.404685,47.738171 33.333773,47.184973 32.939473,46.876694 z"
         style="fill:#bd7a62;fill-opacity:1;fill-rule:nonzero;stroke:none;stroke-opacity:1" />
      <path
         id="rect22339"
         d="M 49.833057,23.074119 C 49.417447,22.982641 49.030572,22.92548 48.807933,23.112493 L 28.707304,39.996651 C 27.639802,40.893334 29.489453,44.84945 32.853648,48.854516 C 35.611029,52.137184 38.43103,54.302689 39.973135,54.522188 C 38.346174,53.844694 35.929587,51.838597 33.571334,49.031091 C 30.207133,45.026018 28.378802,41.095299 29.446304,40.198617 L 49.833057,23.074119 z"
         style="fill:#a76c58;fill-opacity:1;fill-rule:nonzero;stroke:none;stroke-opacity:1" />
      <path
         id="path23102"
         d="M 41.22857,54.493985 C 41.644187,54.585457 42.031055,54.642624 42.253693,54.455612 L 62.354322,37.571453 C 63.421824,36.674771 61.572173,32.718654 58.207978,28.713589 C 55.450597,25.43092 52.630604,23.26541 51.088491,23.045917 C 52.71546,23.723405 55.132047,25.729501 57.4903,28.537007 C 60.854509,32.542074 62.682824,36.472806 61.615322,37.369488 L 41.22857,54.493985 z"
         style="fill:#d7a08e;fill-opacity:1;fill-rule:nonzero;stroke:none;stroke-opacity:1" />
    </g>
  </g>
</svg>
